<svg width="77" height="61" viewBox="0 0 77 61" fill="none" xmlns="http://www.w3.org/2000/svg"><path d="M40.2593 35.6377C40.2593 43.8471 38.5546 50.1266 35.1451 54.4759C31.7356 58.8253 26.7441 61 20.1706 61C13.6789 61 8.71467 58.8661 5.2779 54.5983C1.84113 50.3304 0.0818278 44.2141 0 36.2493V25.3215C0 17.0305 1.71838 10.7375 5.15515 6.44251C8.6192 2.1475 13.5971 0 20.0887 0C26.5804 0 31.5446 2.13391 34.9814 6.40174C38.4182 10.6424 40.1775 16.7451 40.2593 24.7099V35.6377ZM28.4352 23.6497C28.4352 18.7295 27.7533 15.1549 26.3895 12.9258C25.053 10.6696 22.9527 9.54144 20.0887 9.54144C17.3066 9.54144 15.2473 10.6152 13.9107 12.7627C12.6015 14.883 11.906 18.213 11.8241 22.7527V37.1872C11.8241 42.0258 12.4787 45.6277 13.788 47.9926C15.1245 50.3304 17.252 51.4993 20.1706 51.4993C23.0618 51.4993 25.1484 50.3712 26.4304 48.115C27.7124 45.8587 28.3806 42.4064 28.4352 37.758V23.6497Z" fill="#24A186"/><path d="M77 60.1845H65.1759V14.7607L51.0606 19.1237V9.54144L75.7317 0.733957H77V60.1845Z" fill="#24A186"/></svg>