<svg width="89" height="61" viewBox="0 0 89 61" fill="none" xmlns="http://www.w3.org/2000/svg"><path d="M40.2094 35.6377C40.2094 43.8471 38.5067 50.1266 35.1015 54.4759C31.6962 58.8253 26.7109 61 20.1455 61C13.6619 61 8.70386 58.8661 5.27135 54.5983C1.83884 50.3304 0.0817264 44.2141 0 36.2493V25.3215C0 17.0305 1.71625 10.7375 5.14876 6.44251C8.60851 2.1475 13.5802 0 20.0638 0C26.5474 0 31.5055 2.13391 34.938 6.40174C38.3705 10.6424 40.1276 16.7451 40.2094 24.7099V35.6377ZM28.3999 23.6497C28.3999 18.7295 27.7189 15.1549 26.3567 12.9258C25.0219 10.6696 22.9242 9.54144 20.0638 9.54144C17.2851 9.54144 15.2283 10.6152 13.8935 12.7627C12.5859 14.883 11.8912 18.213 11.8095 22.7527V37.1872C11.8095 42.0258 12.4633 45.6277 13.7709 47.9926C15.1058 50.3304 17.2306 51.4993 20.1455 51.4993C23.0332 51.4993 25.1172 50.3712 26.3976 48.115C27.678 45.8587 28.3454 42.4064 28.3999 37.758V23.6497Z" fill="#24A186"/><path d="M89 60.1845H48.2185V52.111L67.4651 31.6417C70.1076 28.7603 72.0554 26.2458 73.3085 24.0983C74.5889 21.9508 75.2291 19.912 75.2291 17.982C75.2291 15.3451 74.5617 13.2792 73.2268 11.7841C71.892 10.2618 69.985 9.50067 67.506 9.50067C64.8362 9.50067 62.725 10.4249 61.1722 12.2734C59.6466 14.0947 58.8838 16.5004 58.8838 19.4906H47.0335C47.0335 15.8752 47.8916 12.5724 49.6079 9.58222C51.3514 6.59202 53.8032 4.25423 56.9633 2.56885C60.1234 0.856283 63.7057 0 67.7103 0C73.8398 0 78.5935 1.46791 81.9715 4.40374C85.3768 7.33957 87.0794 11.4851 87.0794 16.8402C87.0794 19.7761 86.3167 22.7663 84.7911 25.8108C83.2655 28.8554 80.6503 32.4029 76.9454 36.4532L63.4197 50.6838H89V60.1845Z" fill="#24A186"/></svg>