<svg width="88" height="61" viewBox="0 0 88 61" fill="none" xmlns="http://www.w3.org/2000/svg"><path d="M40.1633 35.6377C40.1633 43.8471 38.4626 50.1266 35.0612 54.4759C31.6599 58.8253 26.6803 61 20.1224 61C13.6463 61 8.69388 58.8661 5.26531 54.5983C1.83673 50.3304 0.0816327 44.2141 0 36.2493V25.3215C0 17.0305 1.71429 10.7375 5.14286 6.44251C8.59864 2.1475 13.5646 0 20.0408 0C26.517 0 31.4694 2.13391 34.898 6.40174C38.3265 10.6424 40.0816 16.7451 40.1633 24.7099V35.6377ZM28.3673 23.6497C28.3673 18.7295 27.6871 15.1549 26.3265 12.9258C24.9932 10.6696 22.898 9.54144 20.0408 9.54144C17.2653 9.54144 15.2109 10.6152 13.8776 12.7627C12.5714 14.883 11.8776 18.213 11.7959 22.7527V37.1872C11.7959 42.0258 12.449 45.6277 13.7551 47.9926C15.0884 50.3304 17.2109 51.4993 20.1224 51.4993C23.0068 51.4993 25.0884 50.3712 26.3673 48.115C27.6463 45.8587 28.3129 42.4064 28.3673 37.758V23.6497Z" fill="#24A186"/><path d="M60.1633 25.2807H66.449C69.4422 25.2807 71.6599 24.5332 73.102 23.0381C74.5442 21.543 75.2653 19.5586 75.2653 17.0849C75.2653 14.6927 74.5442 12.8307 73.102 11.4987C71.6871 10.1667 69.7279 9.50067 67.2245 9.50067C64.966 9.50067 63.0748 10.1259 61.551 11.3763C60.0272 12.5996 59.2653 14.2034 59.2653 16.1878H47.4694C47.4694 13.0889 48.2993 10.3162 49.9592 7.86965C51.6463 5.39594 53.9864 3.46591 56.9796 2.07955C60 0.693182 63.3197 0 66.9388 0C73.2245 0 78.1497 1.50869 81.7143 4.52607C85.2789 7.51627 87.0612 11.6482 87.0612 16.9218C87.0612 19.6402 86.2313 22.141 84.5714 24.4245C82.9116 26.7079 80.7347 28.4612 78.0408 29.6845C81.3878 30.8806 83.8775 32.6747 85.5102 35.0668C87.1701 37.459 88 40.2861 88 43.5481C88 48.8217 86.068 53.0488 82.2041 56.2293C78.3673 59.4098 73.2789 61 66.9388 61C61.0068 61 56.1497 59.4369 52.3673 56.3108C48.6122 53.1847 46.7347 49.0528 46.7347 43.9151H58.5306C58.5306 46.1442 59.3605 47.9655 61.0204 49.379C62.7075 50.7926 64.7755 51.4993 67.2245 51.4993C70.0272 51.4993 72.2177 50.7654 73.7959 49.2975C75.4014 47.8024 76.2041 45.8316 76.2041 43.385C76.2041 37.459 72.9388 34.496 66.4082 34.496H60.1633V25.2807Z" fill="#24A186"/></svg>