<svg width="90" height="61" viewBox="0 0 90 61" fill="none" xmlns="http://www.w3.org/2000/svg"><path d="M40.123 35.6377C40.123 43.8471 38.424 50.1266 35.0261 54.4759C31.6281 58.8253 26.6535 61 20.1023 61C13.6326 61 8.68516 58.8661 5.26003 54.5983C1.83489 50.3304 0.0815508 44.2141 0 36.2493V25.3215C0 17.0305 1.71257 10.7375 5.1377 6.44251C8.59002 2.1475 13.551 0 20.0207 0C26.4904 0 31.4378 2.13391 34.863 6.40174C38.2881 10.6424 40.0414 16.7451 40.123 24.7099V35.6377ZM28.3389 23.6497C28.3389 18.7295 27.6593 15.1549 26.3001 12.9258C24.9681 10.6696 22.875 9.54144 20.0207 9.54144C17.248 9.54144 15.1956 10.6152 13.8636 12.7627C12.5588 14.883 11.8656 18.213 11.7841 22.7527V37.1872C11.7841 42.0258 12.4365 45.6277 13.7413 47.9926C15.0733 50.3304 17.1936 51.4993 20.1023 51.4993C22.9837 51.4993 25.0633 50.3712 26.3409 48.115C27.6185 45.8587 28.2845 42.4064 28.3389 37.758V23.6497Z" fill="#24A186"/><path d="M82.9779 37.8396H89.7059V47.3402H82.9779V60.1845H71.1938V47.3402H46.8509L46.3209 39.9191L71.0715 0.815508H82.9779V37.8396ZM58.0642 37.8396H71.1938V16.881L70.4191 18.2266L58.0642 37.8396Z" fill="#24A186"/></svg>