<svg width="89" height="61" viewBox="0 0 89 61" fill="none" xmlns="http://www.w3.org/2000/svg"><path d="M40.123 35.6377C40.123 43.8471 38.424 50.1266 35.0261 54.4759C31.6281 58.8253 26.6535 61 20.1023 61C13.6326 61 8.68516 58.8661 5.26003 54.5983C1.83489 50.3304 0.0815508 44.2141 0 36.2493V25.3215C0 17.0305 1.71257 10.7375 5.1377 6.44251C8.59002 2.1475 13.551 0 20.0207 0C26.4904 0 31.4378 2.13391 34.863 6.40174C38.2881 10.6424 40.0414 16.7451 40.123 24.7099V35.6377ZM28.3389 23.6497C28.3389 18.7295 27.6593 15.1549 26.3001 12.9258C24.9681 10.6696 22.875 9.54144 20.0207 9.54144C17.248 9.54144 15.1956 10.6152 13.8636 12.7627C12.5588 14.883 11.8656 18.213 11.7841 22.7527V37.1872C11.7841 42.0258 12.4365 45.6277 13.7413 47.9926C15.0733 50.3304 17.1936 51.4993 20.1023 51.4993C22.9837 51.4993 25.0633 50.3712 26.3409 48.115C27.6185 45.8587 28.2845 42.4064 28.3389 37.758V23.6497Z" fill="#24A186"/><path d="M49.8683 30.9893L53.2934 0.815508H86.5662V10.6424H62.9572L61.4893 23.4051C64.2892 21.91 67.2658 21.1624 70.4191 21.1624C76.0733 21.1624 80.5042 22.9158 83.7119 26.4225C86.9196 29.9291 88.5234 34.8358 88.5234 41.1424C88.5234 44.9753 87.7079 48.414 86.0769 51.4586C84.473 54.4759 82.1624 56.8273 79.1451 58.5127C76.1277 60.1709 72.5666 61 68.4619 61C64.8737 61 61.5437 60.2796 58.4719 58.8389C55.4002 57.371 52.9672 55.3186 51.1731 52.6818C49.4062 50.045 48.4684 47.0412 48.3596 43.6705H60.0214C60.266 46.1442 61.1223 48.0742 62.5902 49.4606C64.0853 50.8197 66.029 51.4993 68.4211 51.4993C71.0851 51.4993 73.1375 50.5479 74.5782 48.6451C76.0189 46.715 76.7393 43.9967 76.7393 40.49C76.7393 37.1192 75.9102 34.5368 74.252 32.7426C72.5938 30.9485 70.2424 30.0515 67.1979 30.0515C64.3979 30.0515 62.1281 30.7854 60.3884 32.2533L59.2467 33.3135L49.8683 30.9893Z" fill="#24A186"/></svg>