<svg width="90" height="61" viewBox="0 0 90 61" fill="none" xmlns="http://www.w3.org/2000/svg"><path d="M40.123 35.6377C40.123 43.8471 38.424 50.1266 35.0261 54.4759C31.6281 58.8253 26.6535 61 20.1023 61C13.6326 61 8.68516 58.8661 5.26003 54.5983C1.83489 50.3304 0.0815508 44.2141 0 36.2493V25.3215C0 17.0305 1.71257 10.7375 5.1377 6.44251C8.59002 2.1475 13.551 0 20.0207 0C26.4904 0 31.4378 2.13391 34.863 6.40174C38.2881 10.6424 40.0414 16.7451 40.123 24.7099V35.6377ZM28.3389 23.6497C28.3389 18.7295 27.6593 15.1549 26.3001 12.9258C24.9681 10.6696 22.875 9.54144 20.0207 9.54144C17.248 9.54144 15.1956 10.6152 13.8636 12.7627C12.5588 14.883 11.8656 18.213 11.7841 22.7527V37.1872C11.7841 42.0258 12.4365 45.6277 13.7413 47.9926C15.0733 50.3304 17.1936 51.4993 20.1023 51.4993C22.9837 51.4993 25.0633 50.3712 26.3409 48.115C27.6185 45.8587 28.2845 42.4064 28.3389 37.758V23.6497Z" fill="#24A186"/><path d="M80.0829 0.203877V9.90842H78.9412C73.6132 9.98997 69.3182 11.3763 66.0561 14.0675C62.8213 16.7587 60.8777 20.4964 60.2253 25.2807C63.3786 22.0731 67.361 20.4693 72.1725 20.4693C77.3373 20.4693 81.4421 22.3177 84.4866 26.0147C87.5312 29.7117 89.0535 34.5775 89.0535 40.6123C89.0535 44.4724 88.2108 47.9655 86.5254 51.0916C84.8672 54.2177 82.5022 56.6506 79.4305 58.3904C76.3859 60.1301 72.9336 61 69.0735 61C62.8213 61 57.7651 58.8253 53.9051 54.4759C50.0722 50.1266 48.1557 44.3229 48.1557 37.0648V32.8242C48.1557 26.3817 49.3654 20.7003 51.7848 15.7801C54.2313 10.8327 57.7244 7.01337 62.264 4.32219C66.8309 1.60383 72.1181 0.231061 78.1257 0.203877H80.0829ZM68.5842 29.9291C66.6814 29.9291 64.9552 30.432 63.4057 31.4378C61.8563 32.4164 60.7146 33.7213 59.9806 35.3523V38.9405C59.9806 42.8821 60.7553 45.9675 62.3048 48.1965C63.8543 50.3984 66.029 51.4993 68.8289 51.4993C71.3569 51.4993 73.3957 50.5071 74.9452 48.5227C76.5218 46.5111 77.3102 43.9151 77.3102 40.7346C77.3102 37.4998 76.5218 34.8902 74.9452 32.9058C73.3685 30.9213 71.2482 29.9291 68.5842 29.9291Z" fill="#24A186"/></svg>