<svg width="85" height="84" viewBox="0 0 85 84" fill="none" xmlns="http://www.w3.org/2000/svg"><g clip-path="url(#clip0)"><g filter="url(#filter0_ii)"><path d="M54.6246 49.2588C51.936 49.2588 49.748 51.4461 49.748 54.1347C49.748 56.824 51.936 59.012 54.6246 59.012C57.314 59.012 59.5006 56.824 59.5006 54.1347C59.4999 51.4461 57.3133 49.2588 54.6246 49.2588Z" fill="#2B495A"/></g><g filter="url(#filter1_ii)"><path d="M30.3216 24.9565C27.6323 24.9565 25.4443 27.1445 25.4443 29.8338C25.445 32.5218 27.6329 34.7091 30.3216 34.7091C33.0102 34.7091 35.1969 32.5218 35.1969 29.8338C35.1969 27.1445 33.0102 24.9565 30.3216 24.9565Z" fill="#2B495A"/></g><g filter="url(#filter2_ii)"><path d="M42.502 0C19.3422 0 0.501953 18.8403 0.501953 42C0.501953 65.1584 19.3422 84 42.502 84C65.659 84 84.498 65.1584 84.498 42C84.498 18.8403 65.659 0 42.502 0ZM30.3213 19.7026C35.906 19.7026 40.4512 24.2465 40.4512 29.8338C40.4512 35.4185 35.906 39.9637 30.3213 39.9637C24.7346 39.9637 20.1901 35.4185 20.1901 29.8338C20.1901 24.2465 24.7353 19.7026 30.3213 19.7026ZM27.2415 60.9735C26.7296 61.4867 26.0557 61.7439 25.3843 61.7439C24.7123 61.7439 24.0397 61.4867 23.5265 60.9735C22.5008 59.9478 22.5008 58.2835 23.5265 57.2591L57.7585 23.0258C58.7835 22.0001 60.4471 22.0001 61.4735 23.0258C62.4992 24.0516 62.4992 25.7158 61.4735 26.7409L27.2415 60.9735ZM54.6249 64.2653C49.0389 64.2653 44.4937 59.7207 44.4937 54.1341C44.4937 48.5494 49.0389 44.0042 54.6249 44.0042C60.2102 44.0042 64.7547 48.5494 64.7547 54.1341C64.7541 59.7207 60.2095 64.2653 54.6249 64.2653Z" fill="#2B495A"/></g></g><defs><filter id="filter0_ii" x="47.748" y="47.259" width="13.752" height="13.753" filterUnits="userSpaceOnUse" color-interpolation-filters="sRGB"><feFlood flood-opacity="0" result="BackgroundImageFix"/><feBlend in="SourceGraphic" in2="BackgroundImageFix" result="shape"/><feColorMatrix in="SourceAlpha" values="0 0 0 0 0 0 0 0 0 0 0 0 0 0 0 0 0 0 127 0" result="hardAlpha"/><feOffset dx="-2" dy="-2"/><feGaussianBlur stdDeviation="2.5"/><feComposite in2="hardAlpha" operator="arithmetic" k2="-1" k3="1"/><feColorMatrix values="0 0 0 0 0.0546875 0 0 0 0 0.131483 0 0 0 0 0.175 0 0 0 1 0"/><feBlend in2="shape" result="effect1_innerShadow"/><feColorMatrix in="SourceAlpha" values="0 0 0 0 0 0 0 0 0 0 0 0 0 0 0 0 0 0 127 0" result="hardAlpha"/><feOffset dx="2" dy="2"/><feGaussianBlur stdDeviation="2.5"/><feComposite in2="hardAlpha" operator="arithmetic" k2="-1" k3="1"/><feColorMatrix values="0 0 0 0 0.0667361 0 0 0 0 0.189032 0 0 0 0 0.258333 0 0 0 1 0"/><feBlend in2="effect1_innerShadow" result="effect2_innerShadow"/></filter><filter id="filter1_ii" x="23.444" y="22.956" width="13.752" height="13.752" filterUnits="userSpaceOnUse" color-interpolation-filters="sRGB"><feFlood flood-opacity="0" result="BackgroundImageFix"/><feBlend in="SourceGraphic" in2="BackgroundImageFix" result="shape"/><feColorMatrix in="SourceAlpha" values="0 0 0 0 0 0 0 0 0 0 0 0 0 0 0 0 0 0 127 0" result="hardAlpha"/><feOffset dx="-2" dy="-2"/><feGaussianBlur stdDeviation="2.5"/><feComposite in2="hardAlpha" operator="arithmetic" k2="-1" k3="1"/><feColorMatrix values="0 0 0 0 0.0546875 0 0 0 0 0.131483 0 0 0 0 0.175 0 0 0 1 0"/><feBlend in2="shape" result="effect1_innerShadow"/><feColorMatrix in="SourceAlpha" values="0 0 0 0 0 0 0 0 0 0 0 0 0 0 0 0 0 0 127 0" result="hardAlpha"/><feOffset dx="2" dy="2"/><feGaussianBlur stdDeviation="2.5"/><feComposite in2="hardAlpha" operator="arithmetic" k2="-1" k3="1"/><feColorMatrix values="0 0 0 0 0.0667361 0 0 0 0 0.189032 0 0 0 0 0.258333 0 0 0 1 0"/><feBlend in2="effect1_innerShadow" result="effect2_innerShadow"/></filter><filter id="filter2_ii" x="-1.498" y="-2" width="87.996" height="88" filterUnits="userSpaceOnUse" color-interpolation-filters="sRGB"><feFlood flood-opacity="0" result="BackgroundImageFix"/><feBlend in="SourceGraphic" in2="BackgroundImageFix" result="shape"/><feColorMatrix in="SourceAlpha" values="0 0 0 0 0 0 0 0 0 0 0 0 0 0 0 0 0 0 127 0" result="hardAlpha"/><feOffset dx="-2" dy="-2"/><feGaussianBlur stdDeviation="2.5"/><feComposite in2="hardAlpha" operator="arithmetic" k2="-1" k3="1"/><feColorMatrix values="0 0 0 0 0.0546875 0 0 0 0 0.131483 0 0 0 0 0.175 0 0 0 1 0"/><feBlend in2="shape" result="effect1_innerShadow"/><feColorMatrix in="SourceAlpha" values="0 0 0 0 0 0 0 0 0 0 0 0 0 0 0 0 0 0 127 0" result="hardAlpha"/><feOffset dx="2" dy="2"/><feGaussianBlur stdDeviation="2.5"/><feComposite in2="hardAlpha" operator="arithmetic" k2="-1" k3="1"/><feColorMatrix values="0 0 0 0 0.0667361 0 0 0 0 0.189032 0 0 0 0 0.258333 0 0 0 1 0"/><feBlend in2="effect1_innerShadow" result="effect2_innerShadow"/></filter><clipPath id="clip0"><path fill="#fff" transform="translate(.5)" d="M0 0H84V84H0z"/></clipPath></defs></svg>