<svg width="85" height="84" viewBox="0 0 85 84" fill="none" xmlns="http://www.w3.org/2000/svg"><g clip-path="url(#clip0)"><g filter="url(#filter0_ii)"><path d="M63.8842 24.1245C56.833 23.406 50.1159 21.2887 43.918 17.828L42.4977 17.0349L41.0677 17.8327C34.877 21.2886 28.1647 23.406 21.1159 24.1245L20.3516 24.2015V42.3028C20.3516 55.2108 29.8421 66.7447 42.4975 69.0878C55.1532 66.735 64.6484 55.2011 64.6484 42.3028V24.2015L63.8842 24.1245ZM45.0259 53.8601C45.0046 53.8679 44.9823 53.8643 44.9609 53.8717V56.7656C44.9609 58.1258 43.8602 59.2265 42.5 59.2265C41.1398 59.2265 40.0391 58.1258 40.0391 56.7656V53.855C38.4183 53.3073 36.8653 52.2682 35.5377 50.6854C34.6629 49.6448 34.7974 48.0923 35.8405 47.2199C36.8812 46.3499 38.4409 46.4822 39.306 47.5228C40.6085 49.0706 42.0818 49.6953 43.3412 49.2363C44.3096 48.8829 44.9609 47.9528 44.9609 46.9218C44.9609 45.5641 43.8578 44.4609 42.5 44.4609C38.429 44.4609 35.1172 41.1491 35.1172 37.0781C35.1172 34.1053 36.8859 31.4352 39.6233 30.2769C39.7585 30.2195 39.9024 30.2226 40.0391 30.1735V27.2343C40.0391 25.8741 41.1398 24.7734 42.5 24.7734C43.8602 24.7734 44.9609 25.8741 44.9609 27.2343V30.1793C46.2352 30.6098 47.4783 31.2937 48.5874 32.3677C49.5631 33.3122 49.5872 34.8695 48.6402 35.8476C47.6957 36.8233 46.1337 36.8474 45.1603 35.9005C43.9659 34.742 42.6393 34.3407 41.5434 34.8094C40.6303 35.1963 40.0391 36.0855 40.0391 37.0781C40.0391 38.4359 41.1422 39.539 42.5 39.539C46.571 39.539 49.8828 42.8508 49.8828 46.9218C49.8828 50.0149 47.9313 52.8027 45.0259 53.8601Z" fill="#2B495A"/></g><g filter="url(#filter1_ii)"><path d="M76.9531 10.0078H73.6583C63.418 10.0078 53.507 6.84206 44.9898 1.16074L43.8627 0.410977C43.036 -0.136992 41.9642 -0.136992 41.1375 0.410977L40.0079 1.1632C31.493 6.84206 21.582 10.0078 11.3417 10.0078H8.04688C6.68663 10.0078 5.58594 11.1085 5.58594 12.4688V42.3029C5.58594 62.9877 21.0268 80.9575 41.5099 83.8847L42.1563 83.976C42.2692 83.9929 42.3847 84 42.5 84C42.6153 84 42.7307 83.9928 42.8437 83.976L43.495 83.8847C63.9732 80.9575 79.4141 62.9877 79.4141 42.3029V12.4688C79.4141 11.1085 78.3134 10.0078 76.9531 10.0078ZM69.5705 42.3029H69.5703C69.5703 57.7126 58.1092 71.4382 42.9085 74.0145C42.7715 74.0362 42.6345 74.0481 42.4975 74.0481C42.3605 74.0481 42.2236 74.0362 42.0866 74.0145C26.8908 71.4477 15.4297 57.7197 15.4297 42.3029V21.9785C15.4297 20.7168 16.3862 19.657 17.6408 19.5295L20.616 19.2266C26.9943 18.5778 33.0674 16.6624 38.6693 13.5356L41.3009 12.0673C42.0459 11.6491 42.9568 11.6491 43.7018 12.0673L46.3189 13.5309C51.9257 16.6624 58.0036 18.5778 64.3841 19.2266L67.3594 19.5295C68.6138 19.6568 69.5705 20.7167 69.5705 21.9785V42.3029Z" fill="#2B495A"/></g></g><defs><filter id="filter0_ii" x="18.352" y="15.035" width="48.297" height="56.053" filterUnits="userSpaceOnUse" color-interpolation-filters="sRGB"><feFlood flood-opacity="0" result="BackgroundImageFix"/><feBlend in="SourceGraphic" in2="BackgroundImageFix" result="shape"/><feColorMatrix in="SourceAlpha" values="0 0 0 0 0 0 0 0 0 0 0 0 0 0 0 0 0 0 127 0" result="hardAlpha"/><feOffset dx="-2" dy="-2"/><feGaussianBlur stdDeviation="2.5"/><feComposite in2="hardAlpha" operator="arithmetic" k2="-1" k3="1"/><feColorMatrix values="0 0 0 0 0.0546875 0 0 0 0 0.131483 0 0 0 0 0.175 0 0 0 1 0"/><feBlend in2="shape" result="effect1_innerShadow"/><feColorMatrix in="SourceAlpha" values="0 0 0 0 0 0 0 0 0 0 0 0 0 0 0 0 0 0 127 0" result="hardAlpha"/><feOffset dx="2" dy="2"/><feGaussianBlur stdDeviation="2.5"/><feComposite in2="hardAlpha" operator="arithmetic" k2="-1" k3="1"/><feColorMatrix values="0 0 0 0 0.0667361 0 0 0 0 0.189032 0 0 0 0 0.258333 0 0 0 1 0"/><feBlend in2="effect1_innerShadow" result="effect2_innerShadow"/></filter><filter id="filter1_ii" x="3.586" y="-2" width="77.828" height="88" filterUnits="userSpaceOnUse" color-interpolation-filters="sRGB"><feFlood flood-opacity="0" result="BackgroundImageFix"/><feBlend in="SourceGraphic" in2="BackgroundImageFix" result="shape"/><feColorMatrix in="SourceAlpha" values="0 0 0 0 0 0 0 0 0 0 0 0 0 0 0 0 0 0 127 0" result="hardAlpha"/><feOffset dx="-2" dy="-2"/><feGaussianBlur stdDeviation="2.5"/><feComposite in2="hardAlpha" operator="arithmetic" k2="-1" k3="1"/><feColorMatrix values="0 0 0 0 0.0546875 0 0 0 0 0.131483 0 0 0 0 0.175 0 0 0 1 0"/><feBlend in2="shape" result="effect1_innerShadow"/><feColorMatrix in="SourceAlpha" values="0 0 0 0 0 0 0 0 0 0 0 0 0 0 0 0 0 0 127 0" result="hardAlpha"/><feOffset dx="2" dy="2"/><feGaussianBlur stdDeviation="2.5"/><feComposite in2="hardAlpha" operator="arithmetic" k2="-1" k3="1"/><feColorMatrix values="0 0 0 0 0.0667361 0 0 0 0 0.189032 0 0 0 0 0.258333 0 0 0 1 0"/><feBlend in2="effect1_innerShadow" result="effect2_innerShadow"/></filter><clipPath id="clip0"><path fill="#fff" transform="translate(.5)" d="M0 0H84V84H0z"/></clipPath></defs></svg>