<svg width="85" height="84" viewBox="0 0 85 84" fill="none" xmlns="http://www.w3.org/2000/svg"><g clip-path="url(#clip0)"><g filter="url(#filter0_ii)"><path d="M84.4863 37.1529C84.415 36.4727 84.065 35.8524 83.52 35.4394L76.8661 30.3993L79.287 22.4112C79.4854 21.7565 79.404 21.049 79.0621 20.4566C78.7202 19.8643 78.1481 19.4401 77.4822 19.2845L69.3532 17.3865L68.3155 9.10413C68.2305 8.42557 67.8685 7.81231 67.3151 7.41052C66.762 7.00824 66.0667 6.85303 65.3952 6.98215L57.1973 8.55452L52.88 1.41042C52.5263 0.825213 51.946 0.412268 51.2771 0.270189C50.6081 0.127947 49.9102 0.268877 49.3489 0.659838L42.4998 5.43061L35.6504 0.660002C35.0889 0.269205 34.3908 0.128111 33.7221 0.270354C33.0531 0.412432 32.473 0.825213 32.1192 1.41075L27.8026 8.55502L19.6047 6.98264C18.933 6.85402 18.2379 7.00889 17.6847 7.41101C17.1315 7.81296 16.7692 8.4259 16.6844 9.10463L15.6467 17.387L7.51774 19.285C6.85164 19.4406 6.27989 19.8648 5.93782 20.4571C5.59591 21.0495 5.51454 21.7568 5.71272 22.4112L8.1333 30.3996L1.47991 35.4394C0.934731 35.8524 0.58495 36.4725 0.513583 37.1528C0.442052 37.833 0.655169 38.5123 1.10273 39.0296L6.56289 45.3429L2.53434 52.6534C2.20425 53.2524 2.13698 53.9613 2.34829 54.6118C2.55977 55.262 3.03079 55.796 3.64997 56.0865L11.206 59.6329L10.4991 67.9502C10.441 68.6318 10.6677 69.3069 11.1256 69.8151C11.583 70.3234 12.2309 70.6194 12.9146 70.6331L21.2604 70.7995L23.9973 78.685C24.2214 79.3311 24.7031 79.8558 25.3279 80.1338C25.9529 80.4123 26.6648 80.419 27.2951 80.1535L34.9874 76.9112L40.6951 83.0018C41.1628 83.5009 41.8161 83.7841 42.5 83.7841C43.1839 83.7841 43.8372 83.5009 44.305 83.0018L50.0129 76.9112L57.7044 80.1535C58.3346 80.4188 59.0468 80.4118 59.6716 80.1338C60.2963 79.8558 60.7782 79.3314 61.0023 78.6852L63.7395 70.7995L72.085 70.6331C72.7687 70.6195 73.4164 70.3234 73.874 69.8151C74.3315 69.3069 74.5584 68.6319 74.5005 67.9502L73.7936 59.6329L81.3501 56.0865C81.9695 55.796 82.4405 55.262 82.6518 54.6116C82.8631 53.9614 82.7958 53.2524 82.4656 52.6532L78.4367 45.3428L83.8974 39.0295C84.3446 38.5125 84.5577 37.833 84.4863 37.1529ZM42.4998 65.6706C29.4476 65.6706 18.8292 55.052 18.8292 42C18.8292 28.948 29.4478 18.3294 42.4998 18.3294C55.5518 18.3294 66.1704 28.9482 66.1704 42C66.1704 55.0518 55.5518 65.6706 42.4998 65.6706Z" fill="#2B495A"/></g><g filter="url(#filter1_ii)"><path d="M42.4995 23.2767C32.1755 23.2767 23.7764 31.6759 23.7764 41.9999C23.7764 52.3238 32.1757 60.723 42.4995 60.723C52.8238 60.723 61.2226 52.3238 61.2226 41.9999C61.2226 31.6759 52.8236 23.2767 42.4995 23.2767ZM52.1976 38.45L41.5993 49.0483C41.1161 49.5313 40.4832 49.773 39.8501 49.773C39.2171 49.773 38.584 49.5313 38.1012 49.0483L32.8016 43.7491C31.8358 42.7833 31.8358 41.217 32.8016 40.2508C33.7674 39.285 35.3339 39.2846 36.2999 40.2508L39.8501 43.8008L48.6993 34.9517C49.6653 33.9859 51.2316 33.9856 52.1977 34.9517C53.1636 35.9177 53.1636 37.484 52.1976 38.45Z" fill="#2B495A"/></g></g><defs><filter id="filter0_ii" x="-1.5" y="-1.784" width="88" height="87.568" filterUnits="userSpaceOnUse" color-interpolation-filters="sRGB"><feFlood flood-opacity="0" result="BackgroundImageFix"/><feBlend in="SourceGraphic" in2="BackgroundImageFix" result="shape"/><feColorMatrix in="SourceAlpha" values="0 0 0 0 0 0 0 0 0 0 0 0 0 0 0 0 0 0 127 0" result="hardAlpha"/><feOffset dx="-2" dy="-2"/><feGaussianBlur stdDeviation="2.5"/><feComposite in2="hardAlpha" operator="arithmetic" k2="-1" k3="1"/><feColorMatrix values="0 0 0 0 0.0546875 0 0 0 0 0.131483 0 0 0 0 0.175 0 0 0 1 0"/><feBlend in2="shape" result="effect1_innerShadow"/><feColorMatrix in="SourceAlpha" values="0 0 0 0 0 0 0 0 0 0 0 0 0 0 0 0 0 0 127 0" result="hardAlpha"/><feOffset dx="2" dy="2"/><feGaussianBlur stdDeviation="2.5"/><feComposite in2="hardAlpha" operator="arithmetic" k2="-1" k3="1"/><feColorMatrix values="0 0 0 0 0.0667361 0 0 0 0 0.189032 0 0 0 0 0.258333 0 0 0 1 0"/><feBlend in2="effect1_innerShadow" result="effect2_innerShadow"/></filter><filter id="filter1_ii" x="21.776" y="21.277" width="41.446" height="41.446" filterUnits="userSpaceOnUse" color-interpolation-filters="sRGB"><feFlood flood-opacity="0" result="BackgroundImageFix"/><feBlend in="SourceGraphic" in2="BackgroundImageFix" result="shape"/><feColorMatrix in="SourceAlpha" values="0 0 0 0 0 0 0 0 0 0 0 0 0 0 0 0 0 0 127 0" result="hardAlpha"/><feOffset dx="-2" dy="-2"/><feGaussianBlur stdDeviation="2.5"/><feComposite in2="hardAlpha" operator="arithmetic" k2="-1" k3="1"/><feColorMatrix values="0 0 0 0 0.0546875 0 0 0 0 0.131483 0 0 0 0 0.175 0 0 0 1 0"/><feBlend in2="shape" result="effect1_innerShadow"/><feColorMatrix in="SourceAlpha" values="0 0 0 0 0 0 0 0 0 0 0 0 0 0 0 0 0 0 127 0" result="hardAlpha"/><feOffset dx="2" dy="2"/><feGaussianBlur stdDeviation="2.5"/><feComposite in2="hardAlpha" operator="arithmetic" k2="-1" k3="1"/><feColorMatrix values="0 0 0 0 0.0667361 0 0 0 0 0.189032 0 0 0 0 0.258333 0 0 0 1 0"/><feBlend in2="effect1_innerShadow" result="effect2_innerShadow"/></filter><clipPath id="clip0"><path fill="#fff" transform="translate(.5)" d="M0 0H84V84H0z"/></clipPath></defs></svg>