<svg width="115" height="84" viewBox="0 0 115 84" fill="none" xmlns="http://www.w3.org/2000/svg"><g filter="url(#filter0_ii)" clip-path="url(#clip0)"><path d="M107.129 39.1081C106.771 39.033 106.434 38.9624 106.134 38.8844C102.733 38.0001 101.181 37.5154 100.034 35.2996L95.6866 26.4987C94.2895 23.8017 90.6821 21.6073 87.645 21.6073H79.9058V11.4445C79.9058 9.61971 78.4211 8.13501 76.5958 8.13501L22.6923 8.18914C20.9163 8.18914 19.577 9.60052 19.577 11.4723V14.4761H5.76829C2.91674 14.4764 0.59668 16.7962 0.59668 19.648C0.59668 22.4998 2.91674 24.8196 5.76829 24.8196H19.5767V29.7764H10.5359C7.68433 29.7764 5.36427 32.0965 5.36427 34.948C5.36427 37.7996 7.68433 40.1196 10.5359 40.1196H19.5767V45.0764H15.3035C12.4519 45.0764 10.1319 47.3965 10.1319 50.248C10.1319 53.0996 12.4519 55.4196 15.3035 55.4196H19.5767V60.6041C19.5767 62.4288 21.0614 63.9135 22.8862 63.9135H28.4933C29.3666 69.8983 34.532 74.5097 40.756 74.5097C46.9805 74.5097 52.1462 69.8983 53.0197 63.9135H75.712C75.8299 63.9135 75.9507 63.9056 76.0713 63.8978C76.9379 69.8902 82.1065 74.5097 88.3359 74.5097C94.5604 74.5097 99.7261 69.8983 100.6 63.9135H108.654C111.824 63.9135 114.403 61.3344 114.403 58.1642V48.4085C114.403 40.6344 110.025 39.7158 107.129 39.1081ZM88.3359 57.611C90.8211 57.611 92.8429 59.6321 92.8429 62.1166C92.8429 64.601 90.8211 66.6221 88.3359 66.6221C85.8517 66.6221 83.8306 64.601 83.8306 62.1166C83.8306 59.6321 85.8517 57.611 88.3359 57.611ZM79.9058 38.4073V26.4072H85.82C88.0931 26.4072 90.8971 28.1128 91.9379 30.1211L95.8062 37.9529C95.8881 38.1113 95.9733 38.2624 96.0616 38.4071H79.9058V38.4073ZM45.263 62.1163C45.263 64.6005 43.2412 66.6219 40.756 66.6219C38.2718 66.6219 36.251 64.6007 36.251 62.1163C36.251 59.6319 38.2718 57.6108 40.756 57.6108C43.2412 57.611 45.263 59.6321 45.263 62.1163Z" fill="#2B495A"/></g><defs><clipPath id="clip0"><path fill="#fff" transform="translate(.597)" d="M0 0H113.806V84H0z"/></clipPath><filter id="filter0_ii" x="-1.403" y="6.135" width="117.807" height="70.375" filterUnits="userSpaceOnUse" color-interpolation-filters="sRGB"><feFlood flood-opacity="0" result="BackgroundImageFix"/><feBlend in="SourceGraphic" in2="BackgroundImageFix" result="shape"/><feColorMatrix in="SourceAlpha" values="0 0 0 0 0 0 0 0 0 0 0 0 0 0 0 0 0 0 127 0" result="hardAlpha"/><feOffset dx="-2" dy="-2"/><feGaussianBlur stdDeviation="2.5"/><feComposite in2="hardAlpha" operator="arithmetic" k2="-1" k3="1"/><feColorMatrix values="0 0 0 0 0.0546875 0 0 0 0 0.131483 0 0 0 0 0.175 0 0 0 1 0"/><feBlend in2="shape" result="effect1_innerShadow"/><feColorMatrix in="SourceAlpha" values="0 0 0 0 0 0 0 0 0 0 0 0 0 0 0 0 0 0 127 0" result="hardAlpha"/><feOffset dx="2" dy="2"/><feGaussianBlur stdDeviation="2.5"/><feComposite in2="hardAlpha" operator="arithmetic" k2="-1" k3="1"/><feColorMatrix values="0 0 0 0 0.0667361 0 0 0 0 0.189032 0 0 0 0 0.258333 0 0 0 1 0"/><feBlend in2="effect1_innerShadow" result="effect2_innerShadow"/></filter></defs></svg>