<svg width="24" height="24" viewBox="0 0 24 24" xmlns="http://www.w3.org/2000/svg"><path d="M4.71429 15V4.71429H3V3H5.57143C5.79876 3 6.01677 3.09031 6.17752 3.25105C6.33826 3.4118 6.42857 3.62981 6.42857 3.85714V14.1429H17.0897L18.804 7.28571H8.14286V5.57143H19.9029C20.0331 5.57143 20.1617 5.60114 20.2788 5.65829C20.3959 5.71544 20.4984 5.79853 20.5786 5.90125C20.6587 6.00396 20.7144 6.1236 20.7414 6.25107C20.7684 6.37853 20.7659 6.51047 20.7343 6.63686L18.5914 15.2083C18.545 15.3936 18.438 15.5582 18.2873 15.6757C18.1367 15.7933 17.9511 15.8571 17.76 15.8571H5.57143C5.3441 15.8571 5.12608 15.7668 4.96534 15.6061C4.80459 15.4453 4.71429 15.2273 4.71429 15V15ZM6.42857 21C5.97391 21 5.53788 20.8194 5.21639 20.4979C4.8949 20.1764 4.71429 19.7404 4.71429 19.2857C4.71429 18.8311 4.8949 18.395 5.21639 18.0735C5.53788 17.752 5.97391 17.5714 6.42857 17.5714C6.88323 17.5714 7.31926 17.752 7.64075 18.0735C7.96224 18.395 8.14286 18.8311 8.14286 19.2857C8.14286 19.7404 7.96224 20.1764 7.64075 20.4979C7.31926 20.8194 6.88323 21 6.42857 21ZM16.7143 21C16.2596 21 15.8236 20.8194 15.5021 20.4979C15.1806 20.1764 15 19.7404 15 19.2857C15 18.8311 15.1806 18.395 15.5021 18.0735C15.8236 17.752 16.2596 17.5714 16.7143 17.5714C17.1689 17.5714 17.605 17.752 17.9265 18.0735C18.248 18.395 18.4286 18.8311 18.4286 19.2857C18.4286 19.7404 18.248 20.1764 17.9265 20.4979C17.605 20.8194 17.1689 21 16.7143 21Z"/></svg>