<svg width="19" height="19" viewBox="0 0 19 19" fill="none" xmlns="http://www.w3.org/2000/svg"><path d="M5.75 5V2.75C5.75 2.55109 5.82902 2.36032 5.96967 2.21967C6.11032 2.07902 6.30109 2 6.5 2H15.5C15.6989 2 15.8897 2.07902 16.0303 2.21967C16.171 2.36032 16.25 2.55109 16.25 2.75V13.25C16.25 13.4489 16.171 13.6397 16.0303 13.7803C15.8897 13.921 15.6989 14 15.5 14H13.25V16.25C13.25 16.664 12.9125 17 12.4948 17H3.50525C3.40635 17.0006 3.3083 16.9816 3.21674 16.9442C3.12519 16.9068 3.04192 16.8517 2.97174 16.782C2.90156 16.7123 2.84584 16.6294 2.80779 16.5381C2.76974 16.4468 2.7501 16.3489 2.75 16.25L2.75225 5.75C2.75225 5.336 3.08975 5 3.5075 5H5.75ZM4.25225 6.5L4.25 15.5H11.75V6.5H4.25225ZM7.25 5H13.25V12.5H14.75V3.5H7.25V5Z" fill="#fff"/></svg>