<svg width="84" height="84" viewBox="0 0 84 84" fill="none" xmlns="http://www.w3.org/2000/svg"><path d="M74.9493 0H9.05067C4.06005 0 0 4.06022 0 9.05084V59.1337C0 64.1243 4.06005 68.1844 9.05067 68.1844H47.797V57.8156C47.797 49.3843 54.6563 42.525 63.0874 42.525C71.5186 42.525 78.3779 49.3845 78.3779 57.8156V67.5078C81.6729 66.1538 84 62.9111 84 59.1337V9.05084C84 4.06022 79.9398 0 74.9493 0V0ZM23.5484 10.7187H60.4516C61.8105 10.7187 62.9126 11.8205 62.9126 13.1796C62.9126 14.5387 61.8105 15.6406 60.4516 15.6406H23.5484C22.1895 15.6406 21.0874 14.5387 21.0874 13.1796C21.0874 11.8205 22.1895 10.7187 23.5484 10.7187V10.7187ZM39.714 55.0047H13.0046C11.6456 55.0047 10.5436 53.9029 10.5436 52.5438C10.5436 51.1847 11.6456 50.0829 13.0046 50.0829H39.7141C41.0734 50.0829 42.1751 51.1847 42.1751 52.5438C42.1751 53.9029 41.0734 55.0047 39.714 55.0047V55.0047ZM70.9951 36.7282H13.0046C11.6456 36.7282 10.5436 35.6263 10.5436 34.2672C10.5436 32.9082 11.6456 31.8063 13.0046 31.8063H70.9953C72.3545 31.8063 73.4562 32.9082 73.4562 34.2672C73.456 35.6263 72.3545 36.7282 70.9951 36.7282ZM70.9951 26.1844H13.0046C11.6456 26.1844 10.5436 25.0825 10.5436 23.7234C10.5436 22.3643 11.6456 21.2625 13.0046 21.2625H70.9953C72.3545 21.2625 73.4562 22.3643 73.4562 23.7234C73.456 25.0825 72.3545 26.1844 70.9951 26.1844Z" fill="#2B495A"/><path d="M63.0873 47.4469C57.3701 47.4469 52.7188 52.0984 52.7188 57.8157C52.7188 63.5329 57.3702 68.1843 63.0873 68.1843C68.8047 68.1843 73.4559 63.5329 73.4559 57.8157C73.4559 52.0984 68.8047 47.4469 63.0873 47.4469Z" fill="#2B495A"/><path d="M52.7188 69.0427V81.5391C52.7188 82.4467 53.2182 83.2806 54.0185 83.7088C54.3822 83.9037 54.7813 84 55.1794 84C55.6569 84 56.1331 83.8612 56.5447 83.5866L63.0873 79.2248L69.63 83.5866C70.0419 83.8612 70.5177 84 70.9953 84C71.3933 84 71.7925 83.9035 72.1562 83.709C72.9565 83.2808 73.4559 82.4468 73.4559 81.5391V69.0427C70.7287 71.5632 67.085 73.1062 63.0873 73.1062C59.0896 73.1062 55.446 71.5632 52.7188 69.0427V69.0427Z" fill="#2B495A"/></svg>