<svg width="32" height="32" viewBox="0 0 32 32" fill="none" xmlns="http://www.w3.org/2000/svg"><path d="M27.7862 5.29221C29.3302 6.83596 30.2346 8.90562 30.3187 11.0874C30.4027 13.2691 29.6602 15.4022 28.2395 17.0602L28.2568 17.0775L27.7848 17.5482L25.8995 15.6615L26.0608 15.5015L26.2155 15.3229C27.1637 14.2158 27.6765 12.8015 27.6581 11.344C27.6397 9.88655 27.0913 8.48561 26.1155 7.40288L25.9008 7.17754C24.8686 6.14523 23.4953 5.52468 22.0384 5.43215C20.5815 5.33961 19.1407 5.78145 17.9862 6.67488L17.7462 6.87221L16.0008 8.37888L14.2582 6.87221C13.1325 5.90046 11.6861 5.38136 10.1994 5.41556C8.71273 5.44977 7.29171 6.03484 6.21193 7.05733C5.13215 8.07981 4.47055 9.46685 4.35542 10.9495C4.2403 12.4321 4.67985 13.9046 5.58884 15.0815L5.78484 15.3215L5.93684 15.5002L17.8848 27.4482L16.0008 29.3335L3.74484 17.0775L3.76217 17.0602C2.3371 15.4011 1.59202 13.2645 1.67638 11.079C1.76074 8.89346 2.6683 6.82066 4.21703 5.27631C5.76576 3.73196 7.84113 2.83028 10.0269 2.75212C12.2126 2.67396 14.3471 3.4251 16.0022 4.85488C17.659 3.4272 19.7944 2.67885 21.98 2.75996C24.1656 2.84107 26.2397 3.74565 27.7862 5.29221ZM25.3342 18.6669V22.6669H29.3342V25.3335H25.3328L25.3342 29.3335H22.6675L22.6662 25.3335H18.6675V22.6669H22.6675V18.6669H25.3342Z" fill="#2B495A"/></svg>