<svg width="16" height="18" viewBox="0 0 16 18" fill="none" xmlns="http://www.w3.org/2000/svg"><path clip-rule="evenodd" d="M4.18841 17.9781C4.31692 18.0039 4.4498 17.9981 4.57554 17.961C4.70128 17.924 4.81611 17.8568 4.91006 17.7653L7.89205 14.3126C8.04801 14.1587 8.13764 13.9499 8.14182 13.7308C8.146 13.5117 8.06439 13.2997 7.91442 13.1399C7.84148 13.0611 7.75346 12.9978 7.65561 12.9537C7.55775 12.9095 7.45205 12.8855 7.34473 12.8829C7.23741 12.8804 7.13067 12.8994 7.03084 12.9389C6.931 12.9783 6.84009 13.0374 6.7635 13.1127L4.90077 15.1908V2.99444C4.89847 2.77696 4.81001 2.56925 4.65479 2.4169C4.49957 2.26454 4.29028 2.17998 4.07278 2.18172C3.61515 2.18172 3.2726 2.83082 3.2726 3.28355V15.3162L1.41806 13.009C1.34592 12.9297 1.25871 12.8657 1.16152 12.8205C1.06434 12.7753 0.959122 12.7499 0.852026 12.7458C0.74493 12.7418 0.638096 12.7591 0.537767 12.7968C0.437439 12.8345 0.345623 12.8918 0.267687 12.9654C0.184707 13.044 0.118669 13.1387 0.0736447 13.2438C0.0286204 13.3488 0.00555416 13.462 0.00586242 13.5763C0.00564346 13.7843 0.0835197 13.9848 0.224058 14.1381L3.48042 17.7326C3.56972 17.8278 3.6808 17.9 3.80414 17.9427C3.92747 17.9855 4.05934 17.9976 4.18841 17.9781ZM11.6131 0.0217441C11.4842 -0.00413616 11.3509 0.00166618 11.2247 0.0387229C11.0985 0.0757797 10.9833 0.142989 10.8888 0.234479L7.8926 3.70356C7.73626 3.85729 7.64636 4.06615 7.64218 4.28537C7.638 4.50459 7.71986 4.71666 7.87023 4.87624C7.94359 4.95506 8.03199 5.01846 8.1302 5.0626C8.22842 5.10675 8.33448 5.13078 8.44213 5.13332C8.54978 5.13586 8.65685 5.11685 8.75704 5.07739C8.85723 5.03792 8.94851 4.97881 9.02551 4.90354L10.8975 2.81993V15.0544C10.9031 15.2713 10.9931 15.4774 11.1484 15.6288C11.3038 15.7802 11.5121 15.865 11.7291 15.865C11.946 15.865 12.1543 15.7802 12.3097 15.6288C12.465 15.4774 12.5551 15.2713 12.5606 15.0544V2.69442L14.3961 5.00721C14.4686 5.08653 14.5562 5.15065 14.6538 5.19584C14.7513 5.24103 14.8569 5.26635 14.9643 5.27041C15.0717 5.27447 15.1789 5.25718 15.2796 5.21948C15.3803 5.18177 15.4724 5.12444 15.5508 5.05082C15.6341 4.97241 15.7004 4.87772 15.7456 4.77263C15.7908 4.66755 15.814 4.55431 15.8137 4.43991C15.8132 4.23043 15.7355 4.02846 15.5955 3.87262L12.3266 0.267172C12.2365 0.171515 12.1244 0.0991923 12.0002 0.0564342C11.8759 0.0136762 11.743 0.00178994 11.6131 0.0217441Z"/></svg>