<svg width="22" height="22" viewBox="0 0 22 22" fill="none" xmlns="http://www.w3.org/2000/svg"><path clip-rule="evenodd" d="M5.85714 2H3.28571C2.94472 2 2.6177 2.13545 2.37658 2.37657C2.13546 2.61769 2 2.94472 2 3.28571V5.85714C2 6.19814 2.13546 6.52517 2.37658 6.76629C2.6177 7.00741 2.94472 7.14286 3.28571 7.14286H5.85714C6.19814 7.14286 6.52516 7.00741 6.76627 6.76629C7.00739 6.52517 7.14286 6.19814 7.14286 5.85714V3.28571C7.14286 2.94472 7.00739 2.61769 6.76627 2.37657C6.52516 2.13545 6.19814 2 5.85714 2ZM5.85714 5.85714H3.28571V3.28571H5.85714V5.85714ZM12.2857 2H9.71429C9.37329 2 9.04627 2.13545 8.80515 2.37657C8.56404 2.61769 8.42857 2.94472 8.42857 3.28571V5.85714C8.42857 6.19814 8.56404 6.52517 8.80515 6.76629C9.04627 7.00741 9.37329 7.14286 9.71429 7.14286H12.2857C12.6267 7.14286 12.9537 7.00741 13.1948 6.76629C13.436 6.52517 13.5714 6.19814 13.5714 5.85714V3.28571C13.5714 2.94472 13.436 2.61769 13.1948 2.37657C12.9537 2.13545 12.6267 2 12.2857 2ZM12.2857 5.85714H9.71429V3.28571H12.2857V5.85714ZM18.7143 2H16.1429C15.8019 2 15.4748 2.13545 15.2337 2.37657C14.9926 2.61769 14.8571 2.94472 14.8571 3.28571V5.85714C14.8571 6.19814 14.9926 6.52517 15.2337 6.76629C15.4748 7.00741 15.8019 7.14286 16.1429 7.14286H18.7143C19.0553 7.14286 19.3823 7.00741 19.6234 6.76629C19.8645 6.52517 20 6.19814 20 5.85714V3.28571C20 2.94472 19.8645 2.61769 19.6234 2.37657C19.3823 2.13545 19.0553 2 18.7143 2ZM18.7143 5.85714H16.1429V3.28571H18.7143V5.85714ZM5.85714 8.42857H3.28571C2.94472 8.42857 2.6177 8.56402 2.37658 8.80514C2.13546 9.04626 2 9.37329 2 9.71429V12.2857C2 12.6267 2.13546 12.9537 2.37658 13.1949C2.6177 13.436 2.94472 13.5714 3.28571 13.5714H5.85714C6.19814 13.5714 6.52516 13.436 6.76627 13.1949C7.00739 12.9537 7.14286 12.6267 7.14286 12.2857V9.71429C7.14286 9.37329 7.00739 9.04626 6.76627 8.80514C6.52516 8.56402 6.19814 8.42857 5.85714 8.42857ZM5.85714 12.2857H3.28571V9.71429H5.85714V12.2857ZM12.2857 8.42857H9.71429C9.37329 8.42857 9.04627 8.56402 8.80515 8.80514C8.56404 9.04626 8.42857 9.37329 8.42857 9.71429V12.2857C8.42857 12.6267 8.56404 12.9537 8.80515 13.1949C9.04627 13.436 9.37329 13.5714 9.71429 13.5714H12.2857C12.6267 13.5714 12.9537 13.436 13.1948 13.1949C13.436 12.9537 13.5714 12.6267 13.5714 12.2857V9.71429C13.5714 9.37329 13.436 9.04626 13.1948 8.80514C12.9537 8.56402 12.6267 8.42857 12.2857 8.42857ZM12.2857 12.2857H9.71429V9.71429H12.2857V12.2857ZM18.7143 8.42857H16.1429C15.8019 8.42857 15.4748 8.56402 15.2337 8.80514C14.9926 9.04626 14.8571 9.37329 14.8571 9.71429V12.2857C14.8571 12.6267 14.9926 12.9537 15.2337 13.1949C15.4748 13.436 15.8019 13.5714 16.1429 13.5714H18.7143C19.0553 13.5714 19.3823 13.436 19.6234 13.1949C19.8645 12.9537 20 12.6267 20 12.2857V9.71429C20 9.37329 19.8645 9.04626 19.6234 8.80514C19.3823 8.56402 19.0553 8.42857 18.7143 8.42857ZM18.7143 12.2857H16.1429V9.71429H18.7143V12.2857ZM5.85714 14.8571H3.28571C2.94472 14.8571 2.6177 14.9926 2.37658 15.2337C2.13546 15.4748 2 15.8019 2 16.1429V18.7143C2 19.0553 2.13546 19.3823 2.37658 19.6234C2.6177 19.8645 2.94472 20 3.28571 20H5.85714C6.19814 20 6.52516 19.8645 6.76627 19.6234C7.00739 19.3823 7.14286 19.0553 7.14286 18.7143V16.1429C7.14286 15.8019 7.00739 15.4748 6.76627 15.2337C6.52516 14.9926 6.19814 14.8571 5.85714 14.8571ZM5.85714 18.7143H3.28571V16.1429H5.85714V18.7143ZM18.7143 14.8571H16.1429C15.8019 14.8571 15.4748 14.9926 15.2337 15.2337C14.9926 15.4748 14.8571 15.8019 14.8571 16.1429V18.7143C14.8571 19.0553 14.9926 19.3823 15.2337 19.6234C15.4748 19.8645 15.8019 20 16.1429 20H18.7143C19.0553 20 19.3823 19.8645 19.6234 19.6234C19.8645 19.3823 20 19.0553 20 18.7143V16.1429C20 15.8019 19.8645 15.4748 19.6234 15.2337C19.3823 14.9926 19.0553 14.8571 18.7143 14.8571ZM18.7143 18.7143H16.1429V16.1429H18.7143V18.7143ZM12.2857 14.8571H9.71429C9.37329 14.8571 9.04627 14.9926 8.80515 15.2337C8.56404 15.4748 8.42857 15.8019 8.42857 16.1429V18.7143C8.42857 19.0553 8.56404 19.3823 8.80515 19.6234C9.04627 19.8645 9.37329 20 9.71429 20H12.2857C12.6267 20 12.9537 19.8645 13.1948 19.6234C13.436 19.3823 13.5714 19.0553 13.5714 18.7143V16.1429C13.5714 15.8019 13.436 15.4748 13.1948 15.2337C12.9537 14.9926 12.6267 14.8571 12.2857 14.8571ZM12.2857 18.7143H9.71429V16.1429H12.2857V18.7143Z"/></svg>