<svg width="24" height="24" viewBox="0 0 24 24" xmlns="http://www.w3.org/2000/svg"><path d="M11.9998 19.4998L5.10583 12.6058C3.47083 10.6798 3.55633 7.7908 5.37058 5.9758C6.2406 5.10581 7.40739 4.59696 8.63691 4.55134C9.86644 4.50571 11.0677 4.92668 11.9998 5.7298C12.931 4.92668 14.1312 4.50512 15.3601 4.54958C16.5889 4.59404 17.7556 5.10124 18.6263 5.96955C19.4969 6.83785 20.0073 8.00312 20.0551 9.23184C20.103 10.4606 19.6847 11.662 18.8841 12.5953L11.9998 19.4998ZM17.7463 11.6181C18.3005 10.9719 18.5899 10.1401 18.5568 9.28953C18.5236 8.43892 18.1702 7.63227 17.5674 7.0312C16.9646 6.43013 16.157 6.07904 15.3063 6.04828C14.4556 6.01751 13.6247 6.30934 12.9801 6.8653L11.9998 7.7113L11.0196 6.8653C10.375 6.30934 9.54406 6.01751 8.69337 6.04828C7.84267 6.07904 7.03502 6.43013 6.43225 7.0312C5.82947 7.63227 5.47609 8.43892 5.44291 9.28953C5.40973 10.1401 5.69921 10.9719 6.25333 11.6181L6.33883 11.7171L11.9998 17.3788L17.6608 11.7171L17.7463 11.6181V11.6181Z"/></svg>