<svg width="14" height="14" viewBox="0 0 14 14" fill="none" xmlns="http://www.w3.org/2000/svg"><path d="M7 5.25C6.35833 5.25 5.83333 5.775 5.83333 6.41667V10.5C5.83333 11.1417 6.35833 11.6667 7 11.6667C7.64167 11.6667 8.16667 11.1417 8.16667 10.5V6.41667C8.16667 5.775 7.64167 5.25 7 5.25ZM7 2.33333C6.35833 2.33333 5.83333 2.85833 5.83333 3.5C5.83333 4.14167 6.35833 4.66667 7 4.66667C7.64167 4.66667 8.16667 4.14167 8.16667 3.5C8.16667 2.85833 7.64167 2.33333 7 2.33333ZM7 0C3.13833 0 0 3.13833 0 7C0 10.8617 3.13833 14 7 14C10.8617 14 14 10.8617 14 7C14 3.13833 10.8617 0 7 0ZM7 0.583333C10.5467 0.583333 13.4167 3.45333 13.4167 7C13.4167 10.5467 10.5467 13.4167 7 13.4167C3.45333 13.4167 0.583333 10.5467 0.583333 7C0.583333 3.45333 3.45333 0.583333 7 0.583333Z"/></svg>