<svg width="18" height="18" viewBox="0 0 18 18" fill="none" xmlns="http://www.w3.org/2000/svg"><path d="M15.1453 1.7998H2.85467C1.28069 1.7998 0 3.08049 0 4.65447V13.3451C0 14.9191 1.28069 16.1998 2.85467 16.1998H15.1453C16.7193 16.1998 18 14.9191 18 13.3451V4.65447C18 3.08049 16.7193 1.7998 15.1453 1.7998ZM15.028 3.34269L8.99953 8.02319L2.97109 3.34269H15.028ZM16.4572 13.3451C16.4572 14.0686 15.8689 14.6569 15.1454 14.6569H2.85467C2.13121 14.6569 1.54288 14.0686 1.54288 13.3451V4.65447C1.54288 4.51005 1.57201 4.37358 1.6153 4.24352L8.52649 9.60925C8.66565 9.71721 8.83259 9.77123 8.99964 9.77123C9.16668 9.77123 9.33363 9.71721 9.47278 9.60925L16.3848 4.2429C16.4282 4.37306 16.4573 4.50984 16.4573 4.65447V13.3451H16.4572Z"/></svg>