<svg width="18" height="19" viewBox="0 0 18 19" fill="none" xmlns="http://www.w3.org/2000/svg"><path d="M9.15891 12.0852C9.00138 12.2436 8.91309 12.458 8.9134 12.6813C8.9137 12.9047 9.00257 13.1189 9.16053 13.2768C9.31848 13.4348 9.53262 13.5236 9.756 13.5239C9.97938 13.5242 10.1938 13.436 10.3521 13.2784L13.5341 10.0964C13.6924 9.9382 13.7813 9.72359 13.7813 9.49982C13.7813 9.27604 13.6924 9.06143 13.5341 8.9032L10.3521 5.72125C10.1939 5.56301 9.9793 5.47412 9.75553 5.47412C9.53175 5.47412 9.31714 5.56301 9.15891 5.72125C9.00067 5.87948 8.91178 6.09409 8.91178 6.31787C8.91178 6.54164 9.00067 6.75625 9.15891 6.91448L10.9005 8.65609H1.6875C1.46372 8.65609 1.24911 8.74498 1.09088 8.90322C0.932645 9.06145 0.84375 9.27606 0.84375 9.49984C0.84375 9.72361 0.932645 9.93822 1.09088 10.0965C1.24911 10.2547 1.46372 10.3436 1.6875 10.3436H10.9005L9.15891 12.0852Z"/><path d="M15.75 1.34375H7.875C7.50204 1.34375 7.14435 1.49191 6.88063 1.75563C6.61691 2.01935 6.46875 2.37704 6.46875 2.75V3.875C6.46875 4.09878 6.55764 4.31339 6.71588 4.47162C6.87411 4.62986 7.08872 4.71875 7.3125 4.71875C7.53628 4.71875 7.75089 4.62986 7.90912 4.47162C8.06736 4.31339 8.15625 4.09878 8.15625 3.875V3.03125H15.4688V15.9688H8.15625V15.125C8.15625 14.9012 8.06736 14.6866 7.90912 14.5284C7.75089 14.3701 7.53628 14.2812 7.3125 14.2812C7.08872 14.2812 6.87411 14.3701 6.71588 14.5284C6.55764 14.6866 6.46875 14.9012 6.46875 15.125V16.25C6.46875 16.623 6.61691 16.9806 6.88063 17.2444C7.14435 17.5081 7.50204 17.6562 7.875 17.6562H15.75C16.123 17.6563 16.4806 17.5081 16.7444 17.2444C17.0081 16.9806 17.1562 16.623 17.1562 16.25V2.75C17.1562 2.37704 17.0081 2.01935 16.7444 1.75563C16.4806 1.49191 16.123 1.34375 15.75 1.34375V1.34375Z"/></svg>