<svg width="155" height="38" viewBox="0 0 155 38" fill="none" xmlns="http://www.w3.org/2000/svg"><path d="M14.354 15.4499C8.52613 15.4499 3.66195 13.6279 2.51938 11.2026C2.35299 11.5558 2.26514 11.9216 2.26514 12.2966V13.455C2.26514 16.4049 7.6775 18.7963 14.354 18.7963C21.0303 18.7963 26.4428 16.4049 26.4428 13.455V12.2966C26.4428 11.9216 26.3549 11.5558 26.1885 11.2026C25.046 13.6279 20.1818 15.4499 14.354 15.4499Z" fill="#2B495A"/><path d="M14.354 21.4133C8.52613 21.4133 3.66195 19.5912 2.51938 17.166C2.35299 17.5192 2.26514 17.8849 2.26514 18.26V19.4184C2.26514 22.3684 7.6775 24.7598 14.354 24.7598C21.0303 24.7598 26.4428 22.3684 26.4428 19.4184V18.26C26.4428 17.8849 26.3549 17.5192 26.1885 17.166C25.046 19.5913 20.1818 21.4133 14.354 21.4133Z" fill="#2B495A"/><path d="M14.354 27.6985C8.52613 27.6985 3.66195 25.8763 2.51938 23.4512C2.35299 23.8044 2.26514 24.1701 2.26514 24.545V25.7035C2.26514 28.6535 7.6775 31.0448 14.354 31.0448C21.0303 31.0448 26.4428 28.6535 26.4428 25.7035V24.545C26.4428 24.1701 26.3549 23.8042 26.1885 23.4512C25.046 25.8762 20.1818 27.6985 14.354 27.6985Z" fill="#2B495A"/><path d="M14.354 33.6614C8.52613 33.6614 3.66195 31.8393 2.51938 29.4142C2.35299 29.7674 2.26514 30.1333 2.26514 30.508V31.6664C2.26514 34.6164 7.6775 37.0077 14.354 37.0077C21.0303 37.0077 26.4428 34.6164 26.4428 31.6664V30.5079C26.4428 30.133 26.3549 29.7671 26.1885 29.4141C25.046 31.8392 20.1818 33.6614 14.354 33.6614Z" fill="#2B495A"/><path fill-rule="evenodd" clip-rule="evenodd" d="M2.26514 6.33324C2.26514 3.38327 7.6775 0.991943 14.3539 0.991943C21.0303 0.991943 26.4428 3.38327 26.4428 6.33324V7.49161C26.4428 10.4416 21.0303 12.8329 14.3539 12.8329C7.6775 12.8329 2.26514 10.4416 2.26514 7.49161V6.33324ZM13.0542 5.20695C13.0542 5.49309 13.8235 5.67752 15.6832 5.95823C18.2846 6.32845 19.3323 6.80761 19.3318 7.58738C19.3318 8.36669 17.955 9.03118 15.4357 9.20612V10.0939H13.2977V9.26534C11.831 9.23641 10.3996 9.07955 9.57996 8.88698L10.2333 7.86719C11.153 8.0697 12.4428 8.25096 13.8617 8.25096C15.1124 8.25096 15.9659 8.06111 15.9659 7.70897C15.9659 7.37718 15.2642 7.16788 13.6452 6.95046C11.2999 6.6381 9.70658 6.20143 9.70658 5.35251C9.70658 4.58359 11.0631 3.98057 13.4041 3.7975V2.96892H15.5478V3.73828C17.0194 3.76314 17.999 3.88655 18.7263 4.02578L18.0874 5.01122C18.025 5.00112 17.9571 4.98966 17.8837 4.97726C17.2904 4.87704 16.3345 4.71559 14.9346 4.71559C13.5133 4.71559 13.0542 4.96466 13.0542 5.20695Z" fill="#2B495A"/><path d="M47.9648 6.22796V4.53265H51.6976V18.8997H47.9648V17.2044C46.8459 18.6028 45.2737 19.302 43.2481 19.302C41.319 19.302 39.66 18.5741 38.2711 17.1182C36.9014 15.6432 36.2166 13.8425 36.2166 11.7162C36.2166 9.60901 36.9014 7.81792 38.2711 6.3429C39.66 4.86788 41.319 4.13037 43.2481 4.13037C45.2737 4.13037 46.8459 4.82957 47.9648 6.22796ZM41.0779 14.6471C41.8303 15.3942 42.7852 15.7677 43.9426 15.7677C45.1001 15.7677 46.055 15.3942 46.8073 14.6471C47.579 13.8808 47.9648 12.9039 47.9648 11.7162C47.9648 10.5285 47.579 9.56112 46.8073 8.81403C46.055 8.04779 45.1001 7.66467 43.9426 7.66467C42.7852 7.66467 41.8303 8.04779 41.0779 8.81403C40.3256 9.56112 39.9494 10.5285 39.9494 11.7162C39.9494 12.9039 40.3256 13.8808 41.0779 14.6471Z" fill="#2B495A"/><path d="M64.6315 12.2909V4.53265H68.3643V18.8997H64.6315V17.2906C63.7441 18.6315 62.307 19.302 60.32 19.302C58.7381 19.302 57.4263 18.7752 56.3846 17.7216C55.3622 16.6489 54.851 15.193 54.851 13.354V4.53265H58.5838V12.8943C58.5838 13.8329 58.8346 14.5609 59.3361 15.0781C59.857 15.5953 60.5611 15.8539 61.4485 15.8539C62.4324 15.8539 63.204 15.557 63.7634 14.9631C64.3422 14.3501 64.6315 13.4594 64.6315 12.2909Z" fill="#2B495A"/><path d="M75.5159 4.53265V7.00378C75.8439 6.10345 76.4033 5.42341 77.1943 4.96366C77.9852 4.48476 78.8919 4.24531 79.9143 4.24531V8.38302C78.7761 8.22977 77.7537 8.45965 76.847 9.07264C75.9596 9.66648 75.5159 10.653 75.5159 12.0323V18.8997H71.7831V4.53265H75.5159Z" fill="#2B495A"/><path d="M91.6465 12.2909V4.53265H95.3793V18.8997H91.6465V17.2906C90.7591 18.6315 89.3219 19.302 87.3349 19.302C85.753 19.302 84.4413 18.7752 83.3995 17.7216C82.3771 16.6489 81.8659 15.193 81.8659 13.354V4.53265H85.5987V12.8943C85.5987 13.8329 85.8495 14.5609 86.3511 15.0781C86.8719 15.5953 87.576 15.8539 88.4634 15.8539C89.4473 15.8539 90.2189 15.557 90.7784 14.9631C91.3571 14.3501 91.6465 13.4594 91.6465 12.2909Z" fill="#2B495A"/><path d="M114.8 4.13037C116.459 4.13037 117.78 4.66674 118.764 5.73948C119.767 6.81222 120.269 8.24893 120.269 10.0496V18.8997H116.536V10.3082C116.536 9.44619 116.324 8.77572 115.9 8.29682C115.475 7.81792 114.877 7.57847 114.105 7.57847C113.257 7.57847 112.591 7.85623 112.109 8.41176C111.646 8.96728 111.414 9.77184 111.414 10.8254V18.8997H107.682V10.3082C107.682 9.44619 107.469 8.77572 107.045 8.29682C106.621 7.81792 106.023 7.57847 105.251 7.57847C104.421 7.57847 103.756 7.86581 103.254 8.44049C102.772 8.99602 102.531 9.791 102.531 10.8254V18.8997H98.798V4.53265H102.531V6.05556C103.399 4.7721 104.74 4.13037 106.553 4.13037C108.347 4.13037 109.659 4.81999 110.488 6.19923C111.434 4.81999 112.871 4.13037 114.8 4.13037Z" fill="#2B495A"/><path d="M137.502 13.2391H126.593C127.076 15.0398 128.436 15.9401 130.673 15.9401C132.101 15.9401 133.181 15.4612 133.914 14.5034L136.924 16.2274C135.496 18.2771 133.393 19.302 130.616 19.302C128.223 19.302 126.304 18.5836 124.857 17.1469C123.41 15.7102 122.687 13.9 122.687 11.7162C122.687 9.5707 123.401 7.77003 124.828 6.31416C126.236 4.8583 128.069 4.13037 130.326 4.13037C132.467 4.13037 134.213 4.8583 135.564 6.31416C136.953 7.77003 137.647 9.5707 137.647 11.7162C137.647 12.1185 137.599 12.6261 137.502 13.2391ZM126.535 10.3657H133.914C133.702 9.42703 133.268 8.70868 132.612 8.21062C131.976 7.71256 131.214 7.46353 130.326 7.46353C129.323 7.46353 128.494 7.72214 127.838 8.23935C127.182 8.73741 126.748 9.44619 126.535 10.3657Z" fill="#2B495A"/><path d="M147.478 11.5438L152.773 18.8997H148.462L145.337 14.5321L142.182 18.8997H137.871L143.166 11.5725L138.102 4.53265H142.414L145.337 8.58416L148.259 4.53265H152.542L147.478 11.5438Z" fill="#2B495A"/><path d="M39.7729 33.2668H38.9655V28.767L35.8404 33.2668H35.1893V27.2326H35.9967V31.741L39.1218 27.2326H39.7729V33.2668Z" fill="#2B495A"/><path d="M44.8316 29.7928V27.2326H45.6302V33.2668H44.8316V30.5514H41.88V33.2668H41.0727V27.2326H41.88V29.7928H44.8316Z" fill="#2B495A"/><path d="M50.403 30.1376C50.6866 30.2756 50.9094 30.4681 51.0715 30.7152C51.2335 30.9623 51.3145 31.2439 51.3145 31.56C51.3145 32.0427 51.1438 32.4479 50.8024 32.7754C50.4609 33.103 50.0442 33.2668 49.5523 33.2668H46.9306V27.2326H49.3613C49.8417 27.2326 50.2439 27.3907 50.568 27.7067C50.8978 28.0228 51.0628 28.4136 51.0628 28.8791C51.0628 29.4193 50.8429 29.8388 50.403 30.1376ZM49.3613 27.9826H47.738V29.8273H49.3613C49.616 29.8273 49.8301 29.7382 50.0037 29.5601C50.1773 29.3819 50.2641 29.1635 50.2641 28.9049C50.2641 28.6521 50.1744 28.4366 49.995 28.2584C49.8214 28.0745 49.6102 27.9826 49.3613 27.9826ZM47.738 32.5168H49.5523C49.8243 32.5168 50.0529 32.422 50.2381 32.2324C50.4233 32.0427 50.5159 31.81 50.5159 31.5341C50.5159 31.264 50.4204 31.0341 50.2294 30.8445C50.05 30.6549 49.8243 30.56 49.5523 30.56H47.738V32.5168Z" fill="#2B495A"/><path d="M53.0788 30.5945V32.5082H55.9001V33.2668H52.2715V27.2326H55.8567V27.9912H53.0788V29.8445H55.6397V30.5945H53.0788Z" fill="#2B495A"/><path d="M59.6884 33.3788C58.7624 33.3788 58.0014 33.0771 57.4053 32.4737C56.8092 31.8761 56.5112 31.1347 56.5112 30.2497C56.5112 29.3647 56.8092 28.6233 57.4053 28.0257C58.0014 27.4223 58.7624 27.1206 59.6884 27.1206C60.2382 27.1206 60.7475 27.2527 61.2162 27.5171C61.685 27.7814 62.0496 28.1377 62.31 28.586L61.6069 28.9911C61.4333 28.6578 61.1728 28.3935 60.8256 28.1981C60.4841 27.9969 60.1051 27.8964 59.6884 27.8964C58.9823 27.8964 58.4094 28.1205 57.9696 28.5688C57.5297 29.0113 57.3098 29.5716 57.3098 30.2497C57.3098 30.9221 57.5297 31.4795 57.9696 31.922C58.4094 32.3703 58.9823 32.5944 59.6884 32.5944C60.1051 32.5944 60.4841 32.4967 60.8256 32.3013C61.1728 32.1002 61.4333 31.8358 61.6069 31.5083L62.31 31.9048C62.0554 32.353 61.6937 32.7122 61.2249 32.9823C60.7619 33.2467 60.2498 33.3788 59.6884 33.3788Z" fill="#2B495A"/><path d="M62.6617 27.2326H67.0456V27.9912H65.2487V33.2668H64.45V27.9912H62.6617V27.2326Z" fill="#2B495A"/><path d="M72.4281 33.2668H71.6208V28.767L68.4957 33.2668H67.8446V27.2326H68.6519V31.741L71.7771 27.2326H72.4281V33.2668Z" fill="#2B495A"/><path d="M78.1379 27.2326V32.5082H78.789V34.4219H77.9816V33.2668H73.728V27.2326H74.5353V32.5082H77.3306V27.2326H78.1379Z" fill="#2B495A"/><path d="M84.3051 33.2668H83.4978V28.767L80.3726 33.2668H79.7216V27.2326H80.5289V31.741L83.654 27.2326H84.3051V33.2668Z" fill="#2B495A"/><path d="M85.2837 30.2497C85.2837 29.3762 85.5876 28.6377 86.1952 28.0343C86.8029 27.4251 87.5466 27.1206 88.4262 27.1206C89.3059 27.1206 90.0496 27.4251 90.6572 28.0343C91.2707 28.6377 91.5774 29.3762 91.5774 30.2497C91.5774 31.1175 91.2707 31.8559 90.6572 32.4651C90.0496 33.0743 89.3059 33.3788 88.4262 33.3788C87.5466 33.3788 86.8029 33.0743 86.1952 32.4651C85.5876 31.8502 85.2837 31.1117 85.2837 30.2497ZM90.7701 30.2497C90.7701 29.5831 90.5444 29.0256 90.093 28.5774C89.6532 28.1234 89.0976 27.8964 88.4262 27.8964C87.7607 27.8964 87.2022 28.1234 86.7508 28.5774C86.3052 29.0314 86.0824 29.5888 86.0824 30.2497C86.0824 30.9048 86.3052 31.4623 86.7508 31.922C87.2022 32.3703 87.7607 32.5944 88.4262 32.5944C89.0976 32.5944 89.6532 32.3703 90.093 31.922C90.5444 31.4623 90.7701 30.9048 90.7701 30.2497Z" fill="#2B495A"/><path d="M96.3068 29.7928V27.2326H97.1055V33.2668H96.3068V30.5514H93.3553V33.2668H92.548V27.2326H93.3553V29.7928H96.3068Z" fill="#2B495A"/><path d="M102.165 29.7928V27.2326H102.963V33.2668H102.165V30.5514H99.2133V33.2668H98.4059V27.2326H99.2133V29.7928H102.165Z" fill="#2B495A"/><path d="M106.469 33.2668H104.264V27.2326H105.071V29.3877H106.469C107.024 29.3877 107.49 29.5744 107.866 29.948C108.243 30.3215 108.431 30.7813 108.431 31.3272C108.431 31.8789 108.243 32.3415 107.866 32.7151C107.496 33.0829 107.03 33.2668 106.469 33.2668ZM109.854 33.2668H109.047V27.2326H109.854V33.2668ZM105.071 30.1376V32.5168H106.469C106.805 32.5168 107.082 32.4048 107.302 32.1806C107.522 31.9565 107.632 31.672 107.632 31.3272C107.632 30.9824 107.522 30.698 107.302 30.4738C107.082 30.2497 106.805 30.1376 106.469 30.1376H105.071Z" fill="#2B495A"/><path d="M111.963 30.5945V32.5082H114.785V33.2668H111.156V27.2326H114.741V27.9912H111.963V29.8445H114.524V30.5945H111.963Z" fill="#2B495A"/><path d="M122.704 27.2326H123.616V33.2668H122.817V28.5515L120.829 31.8358H120.725L118.737 28.5601V33.2668H117.93V27.2326H118.841L120.777 30.4221L122.704 27.2326Z" fill="#2B495A"/><path d="M124.594 30.2497C124.594 29.3762 124.898 28.6377 125.505 28.0343C126.113 27.4251 126.857 27.1206 127.736 27.1206C128.616 27.1206 129.36 27.4251 129.967 28.0343C130.581 28.6377 130.888 29.3762 130.888 30.2497C130.888 31.1175 130.581 31.8559 129.967 32.4651C129.36 33.0743 128.616 33.3788 127.736 33.3788C126.857 33.3788 126.113 33.0743 125.505 32.4651C124.898 31.8502 124.594 31.1117 124.594 30.2497ZM130.08 30.2497C130.08 29.5831 129.854 29.0256 129.403 28.5774C128.963 28.1234 128.408 27.8964 127.736 27.8964C127.071 27.8964 126.512 28.1234 126.061 28.5774C125.615 29.0314 125.392 29.5888 125.392 30.2497C125.392 30.9048 125.615 31.4623 126.061 31.922C126.512 32.3703 127.071 32.5944 127.736 32.5944C128.408 32.5944 128.963 32.3703 129.403 31.922C129.854 31.4623 130.08 30.9048 130.08 30.2497Z" fill="#2B495A"/><path d="M135.617 29.7928V27.2326H136.416V33.2668H135.617V30.5514H132.665V33.2668H131.858V27.2326H132.665V29.7928H135.617Z" fill="#2B495A"/><path d="M138.523 30.5945V32.5082H141.345V33.2668H137.716V27.2326H141.301V27.9912H138.523V29.8445H141.084V30.5945H138.523Z" fill="#2B495A"/><path d="M141.825 27.2326H146.208V27.9912H144.411V33.2668H143.613V27.9912H141.825V27.2326Z" fill="#2B495A"/><path d="M149.212 33.2668H147.007V27.2326H147.815V29.3877H149.212C149.768 29.3877 150.234 29.5744 150.61 29.948C150.986 30.3215 151.174 30.7813 151.174 31.3272C151.174 31.8789 150.986 32.3415 150.61 32.7151C150.24 33.0829 149.774 33.2668 149.212 33.2668ZM152.598 33.2668H151.791V27.2326H152.598V33.2668ZM147.815 30.1376V32.5168H149.212C149.548 32.5168 149.826 32.4048 150.046 32.1806C150.266 31.9565 150.376 31.672 150.376 31.3272C150.376 30.9824 150.266 30.698 150.046 30.4738C149.826 30.2497 149.548 30.1376 149.212 30.1376H147.815Z" fill="#2B495A"/></svg>