<svg width="34" height="20" viewBox="0 0 34 20" fill="none" xmlns="http://www.w3.org/2000/svg"><path d="M21.2336 17.8632H12.4844V2.1394H21.2336V17.8632Z" fill="#FF5F00"/><path d="M13.0449 10C13.0449 6.81035 14.5383 3.9691 16.8639 2.13809C15.1633 0.799161 13.0169 4.01392e-07 10.6843 4.01392e-07C5.16199 4.01392e-07 0.685547 4.47708 0.685547 10C0.685547 15.5229 5.16199 20 10.6843 20C13.0169 20 15.1633 19.2008 16.8639 17.8619C14.5383 16.0309 13.0449 13.1896 13.0449 10Z" fill="#EB001B"/><path d="M33.0325 10C33.0325 15.5229 28.5561 20 23.0338 20C20.7012 20 18.5548 19.2008 16.8535 17.8619C19.1798 16.0309 20.6732 13.1896 20.6732 10C20.6732 6.81035 19.1798 3.9691 16.8535 2.13809C18.5548 0.799161 20.7012 4.01392e-07 23.0338 4.01392e-07C28.5561 4.01392e-07 33.0325 4.47708 33.0325 10Z" fill="#F79E1B"/></svg>