<svg width="48" height="48" viewBox="0 0 48 48" fill="none" xmlns="http://www.w3.org/2000/svg"><rect width="48" height="48" rx="2" fill="#0DC143"/><path d="M31.4673 16.5649C29.5218 14.5784 26.8324 13.5 24.0858 13.5C18.2493 13.5 13.5572 18.2108 13.6144 23.9432C13.6144 25.7595 14.1294 27.5189 14.9877 29.1081L13.5 34.5L19.0504 33.0811C20.5954 33.9324 22.312 34.3297 24.0286 34.3297C29.8079 34.3297 34.5 29.6189 34.5 23.8865C34.5 21.1054 33.4128 18.4946 31.4673 16.5649ZM24.0858 32.5703C22.5409 32.5703 20.9959 32.173 19.6798 31.3784L19.3365 31.2081L16.0177 32.0595L16.876 28.8243L16.6471 28.4838C14.1294 24.4541 15.3311 19.1189 19.451 16.6216C23.5708 14.1243 28.8924 15.3162 31.4101 19.4027C33.9278 23.4892 32.7262 28.7676 28.6063 31.2649C27.2902 32.1162 25.688 32.5703 24.0858 32.5703ZM29.1213 26.2703L28.4918 25.9865C28.4918 25.9865 27.5763 25.5892 27.0041 25.3054C26.9469 25.3054 26.8896 25.2486 26.8324 25.2486C26.6608 25.2486 26.5463 25.3054 26.4319 25.3622C26.4319 25.3622 26.3747 25.4189 25.5736 26.327C25.5163 26.4405 25.4019 26.4973 25.2875 26.4973H25.2302C25.173 26.4973 25.0586 26.4405 25.0014 26.3838L24.7153 26.2703C24.0858 25.9865 23.5136 25.6459 23.0559 25.1919C22.9414 25.0784 22.7698 24.9649 22.6553 24.8514C22.2548 24.4541 21.8542 24 21.5681 23.4892L21.5109 23.3757C21.4537 23.3189 21.4537 23.2622 21.3965 23.1486C21.3965 23.0351 21.3965 22.9216 21.4537 22.8649C21.4537 22.8649 21.6826 22.5811 21.8542 22.4108C21.9687 22.2973 22.0259 22.127 22.1403 22.0135C22.2548 21.8432 22.312 21.6162 22.2548 21.4459C22.1975 21.1622 21.5109 19.6297 21.3392 19.2892C21.2248 19.1189 21.1104 19.0622 20.9387 19.0054H20.767C20.6526 19.0054 20.4809 19.0054 20.3093 19.0054C20.1948 19.0054 20.0804 19.0622 19.9659 19.0622L19.9087 19.1189C19.7943 19.1757 19.6798 19.2892 19.5654 19.3459C19.451 19.4595 19.3937 19.573 19.2793 19.6865C18.8787 20.1973 18.6499 20.8216 18.6499 21.4459C18.6499 21.9 18.7643 22.3541 18.936 22.7514L18.9932 22.9216C19.5082 24 20.1948 24.9649 21.1104 25.8162L21.3392 26.0432C21.5109 26.2135 21.6826 26.327 21.797 26.4973C22.9986 27.5189 24.3719 28.2568 25.9169 28.6541C26.0886 28.7108 26.3174 28.7108 26.4891 28.7676C26.6608 28.7676 26.8896 28.7676 27.0613 28.7676C27.3474 28.7676 27.6907 28.6541 27.9196 28.5405C28.0913 28.427 28.2057 28.427 28.3202 28.3135L28.4346 28.2C28.549 28.0865 28.6635 28.0297 28.7779 27.9162C28.8924 27.8027 29.0068 27.6892 29.064 27.5757C29.1785 27.3486 29.2357 27.0649 29.2929 26.7811C29.2929 26.6676 29.2929 26.4973 29.2929 26.3838C29.2929 26.3838 29.2357 26.327 29.1213 26.2703Z" fill="#fff"/></svg>