<svg width="48" height="48" viewBox="0 0 48 48" fill="none" xmlns="http://www.w3.org/2000/svg"><rect width="48" height="48" rx="2" fill="#EE8208"/><path d="M26.1633 28.7604L29.1522 31.79C29.7645 32.4093 29.7645 33.4151 29.1522 34.035C28.5405 34.655 27.5491 34.655 26.9381 34.035L23.9995 31.0579L21.0633 34.035C20.7572 34.3447 20.356 34.4997 19.9549 34.4997C19.5543 34.4997 19.1538 34.3447 18.8477 34.035C18.236 33.4151 18.236 32.41 18.847 31.79L21.8362 28.7604C20.7479 28.5091 19.6983 28.072 18.7315 27.4573C17.9999 26.9897 17.7801 26.0102 18.2411 25.268C18.7008 24.5249 19.6676 24.3012 20.4005 24.7687C22.5893 26.1642 25.409 26.1645 27.599 24.7687C28.332 24.3012 29.2984 24.5249 29.7591 25.268C30.22 26.0096 29.9996 26.9897 29.268 27.4573C28.3012 28.0727 27.2516 28.5091 26.1633 28.7604Z" fill="#fff"/><path fill-rule="evenodd" clip-rule="evenodd" d="M18.6398 18.9193C18.6398 21.9068 21.0378 24.3369 23.9864 24.3369C26.9356 24.3369 29.333 21.9068 29.333 18.9193C29.333 15.9308 26.9356 13.5 23.9864 13.5C21.0378 13.5 18.6398 15.9308 18.6398 18.9193ZM26.2002 18.9193C26.2002 17.682 25.2072 16.6759 23.9864 16.6759C22.7666 16.6759 21.7726 17.682 21.7726 18.9193C21.7726 20.1556 22.7666 21.1623 23.9864 21.1623C25.2072 21.1623 26.2002 20.1556 26.2002 18.9193Z" fill="#fff"/></svg>