<svg width="48" height="48" viewBox="0 0 48 48" fill="none" xmlns="http://www.w3.org/2000/svg"><rect width="48" height="48" rx="2" fill="#4A76A8"/><path fill-rule="evenodd" clip-rule="evenodd" d="M33.1598 18.8316C33.309 18.3625 33.1598 18.0213 32.4988 18.0213H30.3025C29.7481 18.0213 29.4922 18.3198 29.343 18.6397C29.343 18.6397 28.2128 21.369 26.6349 23.1388C26.1232 23.6506 25.8886 23.8212 25.6114 23.8212C25.4622 23.8212 25.2703 23.6506 25.2703 23.1815V18.8103C25.2703 18.2559 25.0997 18 24.6306 18H21.1763C20.8351 18 20.6219 18.2559 20.6219 18.5117C20.6219 19.0448 21.4108 19.1728 21.4961 20.6654V23.9065C21.4961 24.6101 21.3682 24.7381 21.091 24.7381C20.3447 24.7381 18.5322 21.9874 17.4447 18.8529C17.2315 18.2346 17.0183 18 16.4639 18H14.2463C13.6066 18 13.5 18.2985 13.5 18.6184C13.5 19.1941 14.2463 22.094 16.9756 25.9321C18.7881 28.5549 21.3682 29.9622 23.6924 29.9622C25.0997 29.9622 25.2703 29.6423 25.2703 29.1093V27.1262C25.2703 26.4865 25.3982 26.3799 25.846 26.3799C26.1658 26.3799 26.7416 26.5505 28.0423 27.8086C29.5349 29.3012 29.7907 29.9835 30.6223 29.9835H32.8186C33.4583 29.9835 33.7568 29.6637 33.5862 29.0453C33.3943 28.4269 32.6693 27.5314 31.7311 26.4652C31.2194 25.8682 30.4518 25.2072 30.2172 24.8873C29.8974 24.4609 29.9826 24.2903 30.2172 23.9065C30.1959 23.9065 32.8826 20.111 33.1598 18.8316Z" fill="#fff"/></svg>