<svg width="84" height="84" viewBox="0 0 84 84" fill="none" xmlns="http://www.w3.org/2000/svg"><path d="M32.1562 84C39.4147 84 45.0345 83.3053 49.5424 81.8851C49.4469 81.3724 49.3828 80.8482 49.3828 80.3086C49.3828 77.8976 50.3851 75.7213 51.9873 74.1562C50.3851 72.5912 49.3828 70.4149 49.3828 68.0039C49.3828 65.593 50.3851 63.4166 51.9873 61.8516C50.3851 60.2866 49.3828 58.1102 49.3828 55.6992C49.3828 53.2883 50.3851 51.1119 51.9873 49.5469C50.3851 47.9819 49.3828 45.8055 49.3828 43.3945C49.3828 40.5465 50.7889 38.0362 52.9262 36.4674C51.4624 35.1273 49.8987 33.9263 48.2581 32.8695C48.9246 32.03 49.3828 31.0142 49.3828 29.8594C49.3828 27.1408 47.1795 24.9375 44.4609 24.9375H19.8516C17.133 24.9375 14.9297 27.1408 14.9297 29.8594C14.9297 31.0117 15.3866 32.0242 16.0493 32.8625C6.49521 39.0174 0 50.1628 0 61.8516C0 81.705 18.4218 84 32.1562 84V84ZM32.13 60.1116C28.0585 60.1116 24.7472 56.8002 24.7472 52.7288C24.7472 49.5148 26.8236 46.8033 29.6953 45.7914V42.1641C29.6953 40.8041 30.7963 39.7031 32.1562 39.7031C33.5162 39.7031 34.6172 40.8041 34.6172 42.1641V45.808C37.462 46.8341 39.5128 49.5347 39.5128 52.7288C39.5128 54.0894 38.4118 55.1897 37.0518 55.1897C35.6913 55.1897 34.5909 54.0894 34.5909 52.7288C34.5909 51.3708 33.4873 50.2679 32.13 50.2679C30.772 50.2679 29.669 51.3708 29.669 52.7288C29.669 54.0868 30.772 55.1897 32.13 55.1897C36.2008 55.1897 39.5128 58.5017 39.5128 62.5725C39.5128 65.7666 37.462 68.4673 34.6172 69.4939V71.6953C34.6172 73.0552 33.5162 74.1562 32.1562 74.1562C30.7963 74.1562 29.6953 73.0552 29.6953 71.6953V69.5099C26.8236 68.4987 24.7472 65.7865 24.7472 62.5725C24.7472 61.2126 25.8475 60.1116 27.2081 60.1116C28.568 60.1116 29.669 61.2126 29.669 62.5725C29.669 63.9305 30.772 65.0335 32.13 65.0335C33.4873 65.0335 34.5909 63.9305 34.5909 62.5725C34.5909 61.2145 33.4873 60.1116 32.13 60.1116Z" fill="#2B495A"/><path d="M80.3086 76.6172H57.9961C55.9575 76.6172 54.3047 78.27 54.3047 80.3086C54.3047 82.3472 55.9575 84 57.9961 84H80.3086C82.3472 84 84 82.3472 84 80.3086C84 78.27 82.3472 76.6172 80.3086 76.6172Z" fill="#2B495A"/><path d="M80.3086 64.3125H57.9961C55.9575 64.3125 54.3047 65.9653 54.3047 68.0039C54.3047 70.0425 55.9575 71.6953 57.9961 71.6953H80.3086C82.3472 71.6953 84 70.0425 84 68.0039C84 65.9653 82.3472 64.3125 80.3086 64.3125Z" fill="#2B495A"/><path d="M80.3086 52.0078H57.9961C55.9575 52.0078 54.3047 53.6606 54.3047 55.6992C54.3047 57.7378 55.9575 59.3906 57.9961 59.3906H80.3086C82.3472 59.3906 84 57.7378 84 55.6992C84 53.6606 82.3472 52.0078 80.3086 52.0078Z" fill="#2B495A"/><path d="M80.3086 39.7031H57.9961C55.9575 39.7031 54.3047 41.3559 54.3047 43.3945C54.3047 45.4331 55.9575 47.0859 57.9961 47.0859H80.3086C82.3472 47.0859 84 45.4331 84 43.3945C84 41.3559 82.3472 39.7031 80.3086 39.7031Z" fill="#2B495A"/><path d="M39.086 4.92188C38.0664 2.0636 35.3606 0 32.1563 0C28.9481 0 26.2109 2.05719 25.1939 4.92188H17.3907C16.5998 4.92188 15.8571 5.30127 15.3937 5.94342C14.9323 6.58493 14.8048 7.41165 15.0573 8.16147L18.8993 20.0156H45.4139L49.2553 8.16147C49.5078 7.41165 49.3803 6.58493 48.9189 5.94342C48.4555 5.30127 47.7127 4.92188 46.9219 4.92188H39.086Z" fill="#2B495A"/></svg>