<svg width="20" height="20" viewBox="0 0 20 20" fill="none" xmlns="http://www.w3.org/2000/svg"><path d="M15.6233 13.445C15.598 13.2252 15.471 12.7213 15.1407 12.5919H15.1411C14.9757 12.5272 14.8361 12.5787 14.7729 12.6952C14.6711 12.8764 14.7473 13.2252 14.9379 13.5358C15.1281 13.846 15.306 14.0011 15.4331 14.0011C15.5601 14.0011 15.6742 13.846 15.6233 13.445Z" fill="#FF8C00"/><path d="M13.846 14.3242C13.6428 14.1434 13.4143 14.053 13.2111 14.053C13.0335 14.053 12.8939 14.1173 12.8047 14.2338C12.5766 14.5179 12.678 15.0354 13.0335 15.3456C13.1859 15.4879 13.4143 15.5654 13.6302 15.5654C13.846 15.5654 14.0362 15.475 14.1506 15.3328C14.3539 15.0483 14.2394 14.6605 13.846 14.3242Z" fill="#FF8C00"/><path d="M0.0332031 8.89436C0.0332031 13.807 3.94325 17.7891 8.76797 17.7891H8.76757C10.05 17.7891 11.3194 17.5436 13.1859 17.5303C14.8491 17.5303 16.6772 18.125 18.683 19.9352C18.8862 20.1161 19.1525 19.8834 18.975 19.6636C17.0071 17.1169 15.179 16.6387 13.3508 16.2248C11.1166 15.7205 9.97385 14.4536 9.174 13.0444C9.02169 12.7599 8.94553 12.8117 8.93251 13.1738C8.91812 13.7065 8.95646 14.2393 9.04694 14.7642H8.78059C5.59384 14.7642 3.00372 12.1266 3.00372 8.8815C3.00372 5.63637 5.59384 2.99881 8.7802 2.99881C11.9669 2.99881 14.5571 5.63637 14.5571 8.8815C14.5571 9.11415 14.5441 9.34681 14.5188 9.56661C14.0871 9.48905 13.262 9.47619 12.678 9.52803C12.4622 9.55375 12.4874 9.65701 12.6528 9.68313C14.5571 10.0448 15.8648 11.2474 16.1694 13.4321C16.182 13.484 16.2455 13.4968 16.2712 13.4583C17.0454 12.1266 17.5023 10.5619 17.5023 8.89436C17.5023 3.98207 13.5919 0 8.76757 0C3.94364 0 0.0332031 3.98167 0.0332031 8.89436Z" fill="#FF8C00"/></svg>