<svg width="20" height="20" viewBox="0 0 20 20" fill="none" xmlns="http://www.w3.org/2000/svg"><path d="M19.4047 13.757C19.7129 13.7402 19.9579 13.4854 19.9579 13.1727C19.9579 11.4866 18.6045 10.1658 16.8767 10.1658H16.3057L15.6078 6.85322C16.2812 6.56065 16.7536 5.88869 16.7536 5.10811C16.7536 4.05959 15.9016 3.20654 14.8543 3.20654H12.1545C11.8313 3.20654 11.5693 3.46889 11.5693 3.79248V4.52217H10.1307C9.8075 4.52217 9.54547 4.78451 9.54547 5.10811C9.54547 5.4317 9.8075 5.69404 10.1307 5.69404H11.5693V6.42373C11.5693 6.74732 11.8313 7.00967 12.1545 7.00967H12.4144C11.9298 7.58268 11.6368 8.32287 11.6368 9.13072V12.4651C11.6368 12.4822 11.6229 12.496 11.6058 12.496H9.24176C9.22813 12.496 9.21594 12.4869 9.21207 12.4738L8.57477 10.3175C9.0884 10.1801 9.46793 9.71041 9.46793 9.15342C9.46793 7.83088 8.39328 6.75494 7.07238 6.75494H1.79945C0.807266 6.7549 0 7.56314 0 8.55658C0 9.46479 0.674727 10.2178 1.54859 10.3404C0.621563 11.1706 0.0369922 12.3767 0.0369922 13.7171V15.5413C0.0369922 15.8649 0.299023 16.1272 0.622227 16.1272H1.12859C1.40117 17.4882 2.60383 18.5167 4.04215 18.5167C5.48047 18.5167 6.68312 17.4882 6.9557 16.1272H14.1147C14.3873 17.4882 15.5899 18.5167 17.0282 18.5167C18.6668 18.5167 20 17.1819 20 15.5413C20 14.8724 19.7783 14.2545 19.4047 13.757ZM18.6916 12.5867H17.3741C17.2606 12.5735 17.1453 12.5659 17.0283 12.5659C16.8185 12.5659 16.6139 12.5881 16.4163 12.6297V11.3377H16.8767C17.7338 11.3377 18.4425 11.8536 18.6916 12.5867ZM12.7397 4.37838H14.8543C15.2562 4.37838 15.5832 4.70572 15.5832 5.10807C15.5832 5.51041 15.2562 5.83775 14.8543 5.83775H12.7397V4.37838ZM9.2418 13.6679H11.6059C12.2683 13.6679 12.8072 13.1283 12.8072 12.465V9.13068C12.8072 8.12357 13.5137 7.2785 14.4566 7.06627L15.2459 10.8128V13.1621C14.6732 13.5933 14.2607 14.2266 14.1147 14.9553H8.29637C8.02305 12.8531 6.28703 11.2802 4.12023 11.2802C3.15402 11.2802 2.2866 11.5958 1.60223 12.1384C2.16754 11.0801 3.28207 10.3583 4.56223 10.3583H7.36637L8.08988 12.8063C8.23973 13.3136 8.71344 13.6679 9.2418 13.6679ZM1.255 14.9553C1.35727 14.332 1.62355 13.7697 2.03078 13.334C2.5623 12.7653 3.30434 12.4521 4.12016 12.4521C5.62961 12.4521 6.84902 13.5128 7.11082 14.9553H1.255V14.9553ZM1.79945 9.18643C1.45262 9.18643 1.17043 8.90389 1.17043 8.55658C1.17043 8.20928 1.45262 7.92674 1.79945 7.92674H7.07238C7.74793 7.92674 8.2975 8.47697 8.2975 9.15334C8.2925 9.17744 8.25391 9.19338 8.18207 9.18635C7.6952 9.18635 7.83438 9.18635 7.73297 9.18635C7.03371 9.18643 1.80285 9.18643 1.79945 9.18643ZM4.04215 17.3448C3.25375 17.3448 2.5825 16.8348 2.33898 16.1272H5.74531C5.5018 16.8348 4.83055 17.3448 4.04215 17.3448ZM17.0283 17.3448C16.035 17.3448 15.227 16.5357 15.227 15.5413C15.227 14.5468 16.0351 13.7378 17.0283 13.7378C18.0215 13.7378 18.8296 14.5468 18.8296 15.5413C18.8296 16.5357 18.0215 17.3448 17.0283 17.3448Z" fill="#24A186"/><path d="M17.0286 16.131C17.3539 16.131 17.6177 15.867 17.6177 15.5412C17.6177 15.2155 17.3539 14.9514 17.0286 14.9514C16.7032 14.9514 16.4395 15.2155 16.4395 15.5412C16.4395 15.867 16.7032 16.131 17.0286 16.131Z" fill="#24A186"/><path d="M0.610625 5.05639H5.85937C6.18258 5.05639 6.44461 4.79405 6.44461 4.47046C6.44461 4.14686 6.18258 3.88452 5.85937 3.88452H0.610625C0.287422 3.88452 0.0253906 4.14686 0.0253906 4.47046C0.0253906 4.79405 0.287422 5.05639 0.610625 5.05639Z" fill="#24A186"/><path d="M2.55398 2.65527H7.84797C8.17117 2.65527 8.4332 2.39293 8.4332 2.06933C8.4332 1.74574 8.17117 1.4834 7.84797 1.4834H2.55398C2.23078 1.4834 1.96875 1.74574 1.96875 2.06933C1.96875 2.39293 2.23078 2.65527 2.55398 2.65527Z" fill="#24A186"/></svg>