<svg width="18" height="19" viewBox="0 0 18 19" fill="none" xmlns="http://www.w3.org/2000/svg"><path d="M9.84015 13.2673L6.6909 11.5498C6.27975 11.9893 5.74589 12.295 5.15871 12.4272C4.57152 12.5593 3.95817 12.5118 3.39835 12.2908C2.83852 12.0698 2.35812 11.6855 2.01958 11.1879C1.68104 10.6902 1.5 10.1023 1.5 9.5004C1.5 8.89853 1.68104 8.31058 2.01958 7.81295C2.35812 7.31532 2.83852 6.93102 3.39835 6.71C3.95817 6.48898 4.57152 6.44146 5.15871 6.57362C5.74589 6.70577 6.27975 7.01148 6.6909 7.45103L9.8409 5.73353C9.66207 5.02559 9.74757 4.27672 10.0814 3.62731C10.4152 2.97789 10.9744 2.47252 11.6542 2.20591C12.3339 1.9393 13.0876 1.92976 13.7739 2.17908C14.4602 2.4284 15.032 2.91947 15.3821 3.56023C15.7323 4.20099 15.8367 4.94745 15.6758 5.65969C15.515 6.37193 15.0999 7.00106 14.5083 7.42914C13.9168 7.85722 13.1894 8.05486 12.4626 7.98503C11.7358 7.91519 11.0594 7.58266 10.5602 7.04978L7.41015 8.76728C7.53106 9.2483 7.53106 9.75176 7.41015 10.2328L10.5594 11.9503C11.0586 11.4174 11.735 11.0849 12.4619 11.015C13.1887 10.9452 13.916 11.1428 14.5076 11.5709C15.0991 11.999 15.5142 12.6281 15.6751 13.3404C15.8359 14.0526 15.7315 14.7991 15.3814 15.4398C15.0312 16.0806 14.4594 16.5717 13.7731 16.821C13.0868 17.0703 12.3332 17.0608 11.6534 16.7942C10.9736 16.5275 10.4144 16.0222 10.0806 15.3728C9.74682 14.7233 9.66132 13.9745 9.84015 13.2665V13.2673ZM4.50015 11C4.89798 11 5.27951 10.842 5.56081 10.5607C5.84212 10.2794 6.00015 9.89785 6.00015 9.50003C6.00015 9.1022 5.84212 8.72067 5.56081 8.43937C5.27951 8.15807 4.89798 8.00003 4.50015 8.00003C4.10233 8.00003 3.7208 8.15807 3.43949 8.43937C3.15819 8.72067 3.00015 9.1022 3.00015 9.50003C3.00015 9.89785 3.15819 10.2794 3.43949 10.5607C3.7208 10.842 4.10233 11 4.50015 11ZM12.7502 6.50003C13.148 6.50003 13.5295 6.342 13.8108 6.06069C14.0921 5.77939 14.2502 5.39786 14.2502 5.00003C14.2502 4.60221 14.0921 4.22067 13.8108 3.93937C13.5295 3.65807 13.148 3.50003 12.7502 3.50003C12.3523 3.50003 11.9708 3.65807 11.6895 3.93937C11.4082 4.22067 11.2502 4.60221 11.2502 5.00003C11.2502 5.39786 11.4082 5.77939 11.6895 6.06069C11.9708 6.342 12.3523 6.50003 12.7502 6.50003ZM12.7502 15.5C13.148 15.5 13.5295 15.342 13.8108 15.0607C14.0921 14.7794 14.2502 14.3979 14.2502 14C14.2502 13.6022 14.0921 13.2207 13.8108 12.9394C13.5295 12.6581 13.148 12.5 12.7502 12.5C12.3523 12.5 11.9708 12.6581 11.6895 12.9394C11.4082 13.2207 11.2502 13.6022 11.2502 14C11.2502 14.3979 11.4082 14.7794 11.6895 15.0607C11.9708 15.342 12.3523 15.5 12.7502 15.5Z" fill="#36393F"/></svg>