<svg width="114" height="84" viewBox="0 0 114 84" fill="none" xmlns="http://www.w3.org/2000/svg"><path d="M106.532 39.1081C106.175 39.033 105.837 38.9624 105.537 38.8844C102.137 38.0001 100.585 37.5153 99.437 35.2996L95.0899 26.4987C93.6928 23.8016 90.0854 21.6073 87.0483 21.6073H79.3091V11.4444C79.3091 9.61968 77.8244 8.13498 75.9992 8.13498L22.0956 8.18911C20.3196 8.18911 18.9803 9.60049 18.9803 11.4722V14.4761H5.17161C2.32006 14.4763 0 16.7962 0 19.648C0 22.4997 2.32006 24.8196 5.17161 24.8196H18.98V29.7764H9.9392C7.08765 29.7764 4.76759 32.0964 4.76759 34.948C4.76759 37.7995 7.08765 40.1196 9.9392 40.1196H18.98V45.0764H14.7068C11.8552 45.0764 9.53517 47.3965 9.53517 50.248C9.53517 53.0996 11.8552 55.4196 14.7068 55.4196H18.98V60.604C18.98 62.4288 20.4647 63.9135 22.2895 63.9135H27.8966C28.7699 69.8983 33.9353 74.5097 40.1593 74.5097C46.3838 74.5097 51.5495 69.8983 52.423 63.9135H75.1153C75.2332 63.9135 75.354 63.9056 75.4746 63.8977C76.3412 69.8902 81.5098 74.5097 87.7392 74.5097C93.9637 74.5097 99.1294 69.8983 100.003 63.9135H108.057C111.227 63.9135 113.807 61.3343 113.807 58.1641V48.4085C113.806 40.6343 109.429 39.7158 106.532 39.1081ZM87.7392 57.611C90.2244 57.611 92.2463 59.6321 92.2463 62.1165C92.2463 64.601 90.2244 66.6221 87.7392 66.6221C85.2551 66.6221 83.234 64.601 83.234 62.1165C83.234 59.6321 85.2551 57.611 87.7392 57.611ZM79.3091 38.4073V26.4071H85.2233C87.4964 26.4071 90.3004 28.1128 91.3413 30.1211L95.2095 37.9528C95.2914 38.1113 95.3766 38.2624 95.4649 38.407H79.3091V38.4073ZM44.6664 62.1163C44.6664 64.6005 42.6445 66.6218 40.1593 66.6218C37.6752 66.6218 35.6543 64.6007 35.6543 62.1163C35.6543 59.6319 37.6752 57.6108 40.1593 57.6108C42.6445 57.611 44.6664 59.6321 44.6664 62.1163Z" fill="#2B495A"/></svg>