<svg width="54" height="16" viewBox="0 0 54 16" fill="none" xmlns="http://www.w3.org/2000/svg"><path d="M23.4629 15.7691H19.1426L21.8448 0.28064H26.165L23.4629 15.7691Z" fill="#00579F"/><path d="M39.124 0.659404C38.2718 0.346017 36.9202 0 35.249 0C30.9825 0 27.978 2.10895 27.9596 5.12412C27.9242 7.3487 30.1107 8.58429 31.746 9.32603C33.4175 10.084 33.9857 10.5787 33.9857 11.2543C33.9687 12.2919 32.6351 12.7702 31.3912 12.7702C29.6663 12.7702 28.7421 12.5236 27.3375 11.9463L26.7686 11.6989L26.1641 15.1757C27.1774 15.6036 29.0442 15.9834 30.9825 16C35.5157 16 38.467 13.9237 38.5019 10.7105C38.5192 8.94739 37.3646 7.59639 34.8754 6.49242C33.3644 5.78374 32.439 5.30589 32.439 4.58078C32.4567 3.9216 33.2217 3.24643 34.9274 3.24643C36.332 3.21336 37.3639 3.52631 38.1457 3.83947L38.5364 4.00394L39.124 0.659404V0.659404Z" fill="#00579F"/><path d="M44.866 10.2821C45.2218 9.39227 46.5909 5.94853 46.5909 5.94853C46.5729 5.9816 46.9459 5.04231 47.1593 4.46569L47.4612 5.80027C47.4612 5.80027 48.2794 9.50769 48.457 10.2821C47.7818 10.2821 45.7193 10.2821 44.866 10.2821ZM50.1989 0.28064H46.8571C45.8266 0.28064 45.0436 0.560519 44.599 1.56572L38.1816 15.7688H42.7149C42.7149 15.7688 43.4612 13.8572 43.6216 13.4455C44.1189 13.4455 48.5288 13.4455 49.1686 13.4455C49.2927 13.9893 49.6841 15.7688 49.6841 15.7688H53.6844L50.1989 0.28064V0.28064Z" fill="#00579F"/><path d="M15.5338 0.28064L11.3027 10.8423L10.8404 8.70024C10.0582 6.22863 7.6049 3.54327 4.86719 2.20804L8.74269 15.7526H13.3114L20.1022 0.28064H15.5338V0.28064Z" fill="#00579F"/><path d="M7.37373 0.28064H0.422675L0.351562 0.593588C5.77382 1.87889 9.36488 4.97705 10.8403 8.7009L9.3292 1.58258C9.08043 0.593369 8.31591 0.31327 7.37373 0.28064Z" fill="#FAA61A"/></svg>