<svg width="21" height="20" viewBox="0 0 21 20" fill="none" xmlns="http://www.w3.org/2000/svg"><path d="M9.98563 0C11.546 0 13.0305 0.363005 14.3627 1.01236C14.5716 1.10807 14.7819 1.22262 14.9901 1.33728L14.0767 2.1589L12.7073 0.726112L10.3477 2.82729L8.95819 1.31794L4.61925 5.23425L7.39718 8.30989L6.3127 9.26481L9.05342 12.3405L7.96885 13.295L11.8893 17.6697L14.2096 15.5301L16.2277 17.823C15.8278 18.1287 15.3901 18.435 14.9149 18.702C13.4684 19.5233 11.7934 20 10.0048 20C4.50466 20 0.0332662 15.5117 0.0332662 9.99141C0.0138427 4.50843 4.48602 0 9.98563 0ZM8.15844 9.37967L10.5373 7.24001L12.6691 9.62782L10.2898 11.7673L8.15844 9.37967ZM9.85259 13.5061L12.2121 11.3474L14.3627 13.7351L11.9837 15.8748L9.85259 13.5061ZM6.46576 5.31092L8.84391 3.17125L10.9753 5.55906L8.59631 7.69863L6.46576 5.31092ZM10.8228 4.16436L12.5927 2.5598L14.1916 4.33645L12.4217 5.95997L10.8228 4.16436ZM13.9821 11.519L15.7515 9.91436L17.3503 11.7096L15.5803 13.3152L13.9821 11.519ZM15.5424 15.1299L17.3124 13.5249L18.91 15.3015L17.1406 16.9248L15.5424 15.1299ZM16.2656 6.877L17.4453 5.80712L18.5107 6.99195L17.3312 8.06144L16.2656 6.877ZM14.7432 3.34294L15.923 2.25431L16.9891 3.45759L15.8084 4.52737L14.7432 3.34294ZM17.7688 10.4114L18.9485 9.34158L20.0332 10.526L18.8347 11.5955L17.7688 10.4114ZM12.4596 7.75596L14.2296 6.15129L15.8278 7.92755L14.0585 9.53251L12.4596 7.75596Z" fill="#036CB5"/></svg>