<svg width="15" height="20" viewBox="0 0 15 20" fill="none" xmlns="http://www.w3.org/2000/svg"><path fill="#D6AB05" d="M1.219 8.267H13.072999999999999V18.961H1.219z"/><path d="M12.3759 8.2631V15.0897L1.8579 18.5116L10.1754 12.8446V0.356079C10.1754 0.356079 4.22408 5.09337 2.36723 6.47797C0.124685 8.15432 0.0332031 8.84167 0.0332031 9.92462V18.2297C0.0332031 18.6031 0.184025 18.964 0.448582 19.2286C0.713138 19.4932 1.07165 19.644 1.44747 19.644H14.7025V8.2631H12.3759ZM6.37514 8.02822C6.86222 7.44965 7.57183 7.24197 7.96248 7.57081C8.35314 7.89718 8.27402 8.63398 7.78693 9.21254C7.29985 9.7911 6.59025 9.99632 6.1996 9.66995C5.81141 9.34111 5.88806 8.60678 6.37514 8.02822Z" fill="#FC0"/><path fill-rule="evenodd" clip-rule="evenodd" d="M7.96325 7.57073C7.5726 7.24189 6.86299 7.44958 6.37591 8.02814C5.88883 8.6067 5.81219 9.34104 6.20037 9.66988C6.59102 9.99625 7.30063 9.79103 7.78771 9.21247C8.27479 8.6339 8.35391 7.8971 7.96325 7.57073Z" fill="#000"/></svg>